<?xml version="1.0" encoding="UTF-8" standalone="no"?>
<!-- Created with Inkscape (http://www.inkscape.org/) -->

<svg
   xmlns:dc="http://purl.org/dc/elements/1.1/"
   xmlns:cc="http://creativecommons.org/ns#"
   xmlns:rdf="http://www.w3.org/1999/02/22-rdf-syntax-ns#"
   xmlns:svg="http://www.w3.org/2000/svg"
   xmlns="http://www.w3.org/2000/svg"
   xmlns:sodipodi="http://sodipodi.sourceforge.net/DTD/sodipodi-0.dtd"
   xmlns:inkscape="http://www.inkscape.org/namespaces/inkscape"
   width="210mm"
   height="297mm"
   viewBox="0 0 744.09448 1052.3622"
   id="svg2"
   version="1.1"
   inkscape:version="0.91 r13725"
   sodipodi:docname="with-latex.svg">
  <sodipodi:namedview
     id="base"
     pagecolor="#ffffff"
     bordercolor="#666666"
     borderopacity="1.0"
     inkscape:pageopacity="0.0"
     inkscape:pageshadow="2"
     inkscape:zoom="0.7"
     inkscape:cx="239.07416"
     inkscape:cy="428.09317"
     inkscape:document-units="px"
     inkscape:current-layer="layer1"
     showgrid="false"
     inkscape:window-width="1920"
     inkscape:window-height="1051"
     inkscape:window-x="1366"
     inkscape:window-y="0"
     inkscape:window-maximized="1"
     inkscape:snap-text-baseline="false" />
  <defs
     id="defs4">
    <inkscape:perspective
       sodipodi:type="inkscape:persp3d"
       inkscape:vp_x="-57.142857 : 283.32395 : 1"
       inkscape:vp_y="0 : 1000 : 0"
       inkscape:vp_z="686.95162 : 283.32395 : 1"
       inkscape:persp3d-origin="314.90438 : 107.93025 : 1"
       id="perspective4635" />
    <filter
       inkscape:collect="always"
       style="color-interpolation-filters:sRGB"
       id="filter4617"
       x="-0.29188334"
       width="1.5837667"
       y="-0.62733132"
       height="2.2546626">
      <feGaussianBlur
         inkscape:collect="always"
         stdDeviation="25.018571"
         id="feGaussianBlur4619" />
    </filter>
  </defs>
  <metadata
     id="metadata7">
    <rdf:RDF>
      <cc:Work
         rdf:about="">
        <dc:format>image/svg+xml</dc:format>
        <dc:type
           rdf:resource="http://purl.org/dc/dcmitype/StillImage" />
        <dc:title></dc:title>
      </cc:Work>
    </rdf:RDF>
  </metadata>
  <g
     inkscape:label="Layer 1"
     inkscape:groupmode="layer"
     id="layer1"
     transform="translate(0,-3.464567e-6)">
    <g
       transform="matrix(0.42853408,0,0,0.53163485,350.05639,324.93945)"
       id="g3341">
      <g
         style="font-style:normal;font-variant:normal;font-weight:normal;font-stretch:normal;letter-spacing:normal;word-spacing:normal;text-anchor:start;fill:none;fill-opacity:1;fill-rule:evenodd;stroke:#000000;stroke-linecap:butt;stroke-linejoin:miter;stroke-miterlimit:10.43299961;stroke-dasharray:none;stroke-dashoffset:0;stroke-opacity:1"
         id="content"
         transform="matrix(1.0629921,0,0,-1.0629921,-186.02362,789.27165)"
         xml:space="preserve"
         stroke-miterlimit="10.433"
         font-style="normal"
         font-variant="normal"
         font-weight="normal"
         font-stretch="normal"
         font-size-adjust="none"
         letter-spacing="normal"
         word-spacing="normal"><path
           style="fill:#000000;stroke-width:0"
           inkscape:connector-curvature="0"
           d="m 475.2,425.58 5.63,0 c -1.65,-7.37 -2.09,-9.51 -2.09,-12.85 0,-0.75 0,-2.09 0.4,-3.79 0.49,-2.19 1.04,-2.49 1.79,-2.49 1,0 2.04,0.9 2.04,1.89 0,0.3 0,0.4 -0.3,1.1 -1.44,3.59 -1.44,6.83 -1.44,8.22 0,2.64 0.35,5.33 0.89,7.92 l 5.68,0 c 0.65,0 2.44,0 2.44,1.69 0,1.2 -1.04,1.2 -1.99,1.2 l -16.69,0 c -1.09,0 -2.99,0 -5.18,-2.34 -1.74,-1.95 -3.04,-4.24 -3.04,-4.49 0,-0.05 0,-0.49 0.6,-0.49 0.4,0 0.5,0.2 0.8,0.6 2.44,3.83 5.33,3.83 6.33,3.83 l 2.84,0 c -1.6,-6.03 -4.29,-12.05 -6.38,-16.59 -0.4,-0.74 -0.4,-0.85 -0.4,-1.19 0,-0.95 0.8,-1.35 1.44,-1.35 1.5,0 1.9,1.4 2.5,3.24 0.69,2.29 0.69,2.39 1.34,4.88 z"
           id="path3344" /><path
           style="fill:#000000;stroke-width:0"
           inkscape:connector-curvature="0"
           d="m 509.61,432.35 -1.19,0 c -0.1,-0.77 -0.45,-2.83 -0.9,-3.18 -0.28,-0.21 -2.97,-0.21 -3.45,-0.21 l -6.42,0 c 3.66,3.25 4.88,4.22 6.97,5.86 2.58,2.06 4.99,4.22 4.99,7.54 0,4.21 -3.7,6.79 -8.16,6.79 -4.33,0 -7.25,-3.03 -7.25,-6.24 0,-1.78 1.5,-1.95 1.84,-1.95 0.84,0 1.85,0.59 1.85,1.85 0,0.62 -0.24,1.85 -2.05,1.85 1.08,2.47 3.45,3.24 5.09,3.24 3.48,0 5.3,-2.72 5.3,-5.54 0,-3.04 -2.16,-5.45 -3.28,-6.7 l -8.4,-8.3 c -0.35,-0.31 -0.35,-0.38 -0.35,-1.36 l 14.36,0 z"
           id="path3346" /><polyline
           style="fill:#000000;fill-rule:nonzero;stroke-width:0"
           points="462,385 514.56,385 514.56,387.04 462,387.04 "
           id="polyline3348" /><path
           style="fill:#000000;stroke-width:0"
           inkscape:connector-curvature="0"
           d="m 481.57,356.34 0,1.2 c 0,12.6 6.18,14.39 8.72,14.39 1.2,0 3.29,-0.3 4.39,-1.99 -0.75,0 -2.74,0 -2.74,-2.24 0,-1.55 1.19,-2.29 2.29,-2.29 0.79,0 2.29,0.44 2.29,2.39 0,2.99 -2.19,5.38 -6.33,5.38 -6.37,0 -13.1,-6.43 -13.1,-17.44 0,-13.3 5.78,-16.84 10.41,-16.84 5.53,0 10.27,4.69 10.27,11.26 0,6.33 -4.44,11.11 -9.97,11.11 l -0.05,-1.15 c 0.8,0 3.09,0 4.64,-3.08 0.89,-1.85 0.89,-4.39 0.89,-6.83 0,-2.39 0,-4.88 -0.85,-6.67 -1.49,-2.99 -3.78,-3.24 -4.93,-3.24 l 0,0 c -3.14,0 -4.63,2.99 -4.93,3.74 -0.89,2.34 -0.89,6.32 -0.89,7.22 0,3.88 1.59,8.86 6.07,8.86 l 0.05,1.15 c -3.39,0 -5.23,-2.54 -6.23,-4.93 z"
           id="path3350" /><path
           style="fill:#000000;stroke-width:0"
           inkscape:connector-curvature="0"
           d="m 568.22,390.29 0.14,0 0.15,0 0.15,0.01 0.07,0 0.07,0 0.07,0.01 0.08,0.01 0.07,0.01 0.07,0.01 0.06,0.02 0.07,0.01 0.07,0.02 0.06,0.02 0.06,0.03 0.06,0.03 0.05,0.03 0.06,0.03 0.05,0.04 0.04,0.04 0.05,0.05 0.03,0.05 0.02,0.03 0.02,0.02 0.02,0.03 0.01,0.03 0.02,0.03 0.01,0.04 0.01,0.03 0.01,0.04 0.01,0.03 0.01,0.04 0.01,0.04 0,0.04 0.01,0.04 0,0.04 0,0.05 0,0.05 c 0,0.99 -0.94,0.99 -1.64,0.99 l -29.84,0 c -0.7,0 -1.64,0 -1.64,-0.99 0,-1 0.94,-1 1.69,-1 z"
           id="path3352" /><path
           style="fill:#000000;stroke-width:0"
           inkscape:connector-curvature="0"
           d="m 568.27,380.62 0.13,0.01 0.14,0 0.14,0 0.07,0.01 0.07,0 0.07,0.01 0.07,0.01 0.07,0.01 0.07,0.01 0.06,0.01 0.07,0.02 0.06,0.02 0.06,0.02 0.06,0.02 0.06,0.03 0.06,0.03 0.05,0.04 0.05,0.04 0.04,0.04 0.05,0.04 0.02,0.03 0.02,0.03 0.01,0.02 0.02,0.03 0.02,0.03 0.01,0.03 0.02,0.03 0.01,0.03 0.01,0.04 0.01,0.03 0.01,0.04 0.01,0.04 0.01,0.04 0,0.04 0.01,0.04 0,0.04 0,0.05 0,0.04 c 0,1 -0.94,1 -1.69,1 l -29.74,0 c -0.75,0 -1.69,0 -1.69,-1 0,-1 0.94,-1 1.64,-1 z"
           id="path3354" /><path
           style="fill:#000000;stroke-width:0"
           inkscape:connector-curvature="0"
           d="m 612.82,408.57 -7.17,-0.55 0,-1.54 c 3.48,0 3.88,-0.35 3.88,-2.79 l 0,-25.9 c 0,-2.25 -0.55,-2.25 -3.88,-2.25 l 0,-1.54 11.05,0 0,1.54 c -3.34,0 -3.88,0 -3.88,2.25 z"
           id="path3356" /><path
           style="fill:#000000;stroke-width:0"
           inkscape:connector-curvature="0"
           d="m 626.82,396.02 -6.98,-0.55 0,-1.54 c 3.24,0 3.69,-0.31 3.69,-2.75 l 0,-13.39 c 0,-2.25 -0.55,-2.25 -3.88,-2.25 l 0,-1.54 10.65,0 0,1.54 c -3.28,0 -3.48,0.25 -3.48,2.19 z"
           id="path3358" /><path
           style="fill:#000000;stroke-width:0"
           inkscape:connector-curvature="0"
           d="m 627.02,404.68 -0.01,0.15 -0.01,0.15 -0.02,0.14 -0.02,0.13 -0.03,0.14 -0.04,0.13 -0.04,0.13 -0.05,0.12 -0.06,0.12 -0.06,0.11 -0.06,0.11 -0.07,0.11 -0.08,0.1 -0.08,0.1 -0.08,0.09 -0.09,0.09 -0.09,0.09 -0.1,0.07 -0.1,0.08 -0.11,0.07 -0.1,0.06 -0.11,0.06 -0.12,0.06 -0.11,0.05 -0.12,0.04 -0.12,0.04 -0.13,0.03 -0.12,0.03 -0.13,0.02 -0.13,0.01 -0.12,0.01 -0.13,0 c -1.55,0 -2.65,-1.34 -2.65,-2.64 0,-1.34 1.1,-2.64 2.65,-2.64 1.39,0 2.64,1.05 2.64,2.64 z"
           id="path3360" /><path
           style="fill:#000000;stroke-width:0"
           inkscape:connector-curvature="0"
           d="m 636.48,391.14 0,-13.35 c 0,-2.25 -0.55,-2.25 -3.89,-2.25 l 0,-1.54 11.21,0 0,1.54 c -3.33,0 -3.88,0 -3.88,2.25 l 0,9.16 c 0,5.18 3.53,7.97 6.72,7.97 3.14,0 3.69,-2.69 3.69,-5.53 l 0,-11.6 c 0,-2.25 -0.55,-2.25 -3.89,-2.25 l 0,-1.54 11.21,0 0,1.54 c -3.34,0 -3.88,0 -3.88,2.25 l 0,9.16 c 0,5.18 3.53,7.97 6.72,7.97 3.14,0 3.69,-2.69 3.69,-5.53 l 0,-11.6 c 0,-2.25 -0.55,-2.25 -3.89,-2.25 l 0,-1.54 11.21,0 0,1.54 c -2.59,0 -3.84,0 -3.89,1.5 l 0,9.51 c 0,4.29 0,5.83 -1.54,7.63 -0.7,0.84 -2.34,1.84 -5.23,1.84 -4.19,0 -6.38,-2.99 -7.23,-4.88 -0.69,4.33 -4.38,4.88 -6.62,4.88 -3.64,0 -5.98,-2.14 -7.37,-5.23 l 0,5.23 -7.03,-0.55 0,-1.54 c 3.49,0 3.89,-0.35 3.89,-2.79 z"
           id="path3362" /><path
           style="fill:#000000;stroke-width:0"
           inkscape:connector-curvature="0"
           d="m 590.25,346.2 -0.01,-0.05 -0.01,-0.04 -0.02,-0.05 -0.01,-0.05 -0.02,-0.05 -0.01,-0.06 -0.02,-0.05 -0.01,-0.05 -0.03,-0.12 -0.03,-0.11 -0.03,-0.11 -0.02,-0.11 -0.02,-0.05 -0.01,-0.06 -0.01,-0.05 -0.01,-0.05 -0.01,-0.04 -0.01,-0.05 -0.01,-0.04 -0.01,-0.04 -0.01,-0.04 0,-0.03 -0.01,-0.03 0,-0.03 -0.01,-0.03 0,-0.02 0,0 0,-0.01 0,-0.01 0,0 c 0,-0.77 0.62,-1.12 1.18,-1.12 0.63,0 1.19,0.46 1.36,0.77 0.17,0.31 0.45,1.43 0.63,2.16 0.17,0.66 0.56,2.27 0.76,3.14 0.21,0.76 0.43,1.53 0.6,2.33 0.38,1.43 0.45,1.71 1.46,3.14 0.98,1.4 2.62,3.21 5.23,3.21 2.03,0 2.06,-1.78 2.06,-2.44 0,-2.09 -1.5,-5.96 -2.06,-7.43 -0.38,-0.97 -0.52,-1.29 -0.52,-1.88 0,-1.85 1.54,-3 3.31,-3 3.49,0 5.03,4.81 5.03,5.33 0,0.46 -0.46,0.46 -0.56,0.46 -0.49,0 -0.53,-0.21 -0.67,-0.59 -0.8,-2.79 -2.3,-4.22 -3.69,-4.22 -0.73,0 -0.87,0.49 -0.87,1.22 0,0.8 0.17,1.25 0.8,2.82 0.42,1.08 1.84,4.78 1.84,6.73 0,3.39 -2.68,3.98 -4.53,3.98 -2.89,0 -4.84,-1.78 -5.89,-3.18 -0.24,2.41 -2.3,3.18 -3.73,3.18 -1.5,0 -2.3,-1.08 -2.75,-1.88 -0.77,-1.3 -1.26,-3.29 -1.26,-3.46 0,-0.45 0.49,-0.45 0.59,-0.45 0.49,0 0.52,0.11 0.77,1.05 0.52,2.05 1.18,3.76 2.54,3.76 0.91,0 1.16,-0.77 1.16,-1.71 0,-0.66 -0.32,-1.95 -0.56,-2.89 -0.24,-0.94 -0.6,-2.37 -0.77,-3.14 z"
           id="path3364" /><path
           style="fill:#000000;stroke-width:0"
           inkscape:connector-curvature="0"
           d="m 643.08,351.88 -0.4,-0.31 -0.38,-0.31 -0.36,-0.31 -0.34,-0.33 -0.31,-0.32 -0.3,-0.33 -0.28,-0.33 -0.26,-0.33 -0.25,-0.33 -0.22,-0.33 -0.21,-0.32 -0.2,-0.32 -0.18,-0.32 -0.16,-0.31 -0.15,-0.3 -0.14,-0.29 -0.12,-0.29 -0.12,-0.28 -0.1,-0.26 -0.09,-0.25 -0.08,-0.24 -0.06,-0.22 -0.06,-0.21 -0.05,-0.19 -0.05,-0.17 -0.03,-0.15 -0.03,-0.13 -0.02,-0.12 -0.02,-0.09 -0.01,-0.06 0,-0.04 -0.01,-0.02 c 0,-0.52 0.35,-0.52 0.84,-0.52 0.63,0 0.73,0 0.91,0.59 0.21,0.87 0.76,3.1 2.58,5.02 2.02,2.13 3.76,2.65 5.23,3.11 0.2,0.06 0.35,0.27 0.35,0.45 0,0.35 -0.22,0.42 -0.67,0.55 -5.02,1.61 -6.8,5.17 -7.53,8.23 -0.14,0.42 -0.38,0.42 -0.87,0.42 -0.49,0 -0.84,0 -0.84,-0.52 0,-0.07 0.35,-2.41 2.06,-4.81 0.8,-1.19 1.78,-2.16 2.93,-3 l -28,0 c -0.56,0 -1.4,0 -1.4,-0.84 0,-0.87 0.81,-0.87 1.4,-0.87 z"
           id="path3366" /><path
           style="fill:#000000;stroke-width:0"
           inkscape:connector-curvature="0"
           d="m 671.16,353.55 -0.17,0.2 -0.17,0.19 -0.15,0.18 -0.15,0.18 -0.14,0.16 -0.14,0.16 -0.13,0.15 -0.13,0.14 -0.12,0.14 -0.12,0.13 -0.12,0.13 -0.11,0.12 -0.11,0.11 -0.1,0.11 -0.11,0.11 -0.1,0.1 -0.2,0.19 -0.19,0.19 -0.2,0.17 -0.19,0.17 -0.21,0.16 -0.21,0.17 -0.11,0.08 -0.12,0.09 -0.12,0.08 -0.12,0.09 c -2.12,1.54 -4.35,2.13 -6.27,2.13 -4.33,0 -7.47,-3.7 -7.47,-7.88 l 0.98,0 c 0,3.34 2.72,5.96 5.93,5.96 3.24,0 5.47,-2.65 8.82,-6.69 l 0,0 c -1.39,-2.27 -4.43,-5.79 -8.68,-5.79 -3.59,0 -6.07,3.17 -6.07,6.52 l -0.98,0 c 0,-4.08 3,-7.85 7.36,-7.85 4.85,0 8.23,3.97 9.49,5.82 1.85,-2.16 2.4,-2.75 3.73,-3.69 2.13,-1.54 4.36,-2.13 6.27,-2.13 4.33,0 7.47,3.7 7.47,7.88 l -0.98,0 c 0,-3.35 -2.72,-5.96 -5.93,-5.96 -3.24,0 -5.47,2.65 -8.82,6.7 l 0,0 c 1.39,2.26 4.43,5.78 8.68,5.78 3.59,0 6.07,-3.17 6.07,-6.52 l 0.98,0 c 0,4.08 -3,7.85 -7.36,7.85 -4.85,0 -8.23,-3.98 -9.48,-5.83 z"
           id="path3368" /><path
           style="fill:#000000;stroke-width:0"
           inkscape:connector-curvature="0"
           d="m 727.25,438.2 -0.01,-0.05 -0.01,-0.04 -0.02,-0.05 -0.01,-0.05 -0.02,-0.05 -0.01,-0.06 -0.02,-0.05 -0.01,-0.05 -0.03,-0.12 -0.03,-0.11 -0.03,-0.11 -0.02,-0.11 -0.02,-0.05 -0.01,-0.06 -0.01,-0.05 -0.01,-0.05 -0.01,-0.04 -0.01,-0.05 -0.01,-0.04 -0.01,-0.04 -0.01,-0.04 0,-0.03 -0.01,-0.03 0,-0.03 -0.01,-0.03 0,-0.02 0,0 0,-0.01 0,-0.01 0,0 c 0,-0.77 0.62,-1.12 1.18,-1.12 0.63,0 1.19,0.46 1.36,0.77 0.17,0.31 0.45,1.43 0.63,2.16 0.17,0.66 0.56,2.27 0.76,3.14 0.21,0.76 0.43,1.53 0.6,2.33 0.38,1.43 0.45,1.71 1.46,3.14 0.98,1.4 2.62,3.21 5.23,3.21 2.03,0 2.06,-1.78 2.06,-2.44 0,-2.09 -1.5,-5.96 -2.06,-7.43 -0.38,-0.97 -0.52,-1.29 -0.52,-1.88 0,-1.85 1.54,-3 3.31,-3 3.49,0 5.03,4.81 5.03,5.33 0,0.46 -0.46,0.46 -0.56,0.46 -0.49,0 -0.53,-0.21 -0.67,-0.59 -0.8,-2.79 -2.3,-4.22 -3.69,-4.22 -0.73,0 -0.87,0.49 -0.87,1.22 0,0.8 0.17,1.25 0.8,2.82 0.42,1.08 1.84,4.78 1.84,6.73 0,3.39 -2.68,3.98 -4.53,3.98 -2.89,0 -4.84,-1.78 -5.89,-3.18 -0.24,2.41 -2.3,3.18 -3.73,3.18 -1.5,0 -2.3,-1.08 -2.75,-1.88 -0.77,-1.3 -1.26,-3.29 -1.26,-3.46 0,-0.45 0.49,-0.45 0.59,-0.45 0.49,0 0.52,0.11 0.77,1.05 0.52,2.05 1.18,3.76 2.54,3.76 0.91,0 1.16,-0.77 1.16,-1.71 0,-0.66 -0.32,-1.95 -0.56,-2.89 -0.24,-0.94 -0.6,-2.37 -0.77,-3.14 z"
           id="path3370" /><path
           style="fill:#000000;stroke-width:0"
           inkscape:connector-curvature="0"
           d="m 762.06,351.26 6.03,15.94 -1.25,0 c -1.94,-5.18 -7.22,-8.57 -12.94,-10.06 -1.05,-0.25 -5.93,-1.55 -15.5,-1.55 l -30.04,0 25.36,29.74 c 0.35,0.4 0.45,0.55 0.45,0.8 0,0.1 0,0.25 -0.35,0.75 l -23.22,31.73 27.3,0 c 6.68,0 11.21,-0.7 11.66,-0.8 2.69,-0.4 7.03,-1.24 10.96,-3.74 1.25,-0.79 4.63,-3.03 6.32,-7.07 l 1.25,0 -6.03,14 -58.88,0 c -1.14,0 -1.19,-0.05 -1.34,-0.35 -0.05,-0.15 -0.05,-1.1 -0.05,-1.64 l 26.35,-36.07 -25.8,-30.23 c -0.5,-0.6 -0.5,-0.85 -0.5,-0.9 0,-0.55 0.45,-0.55 1.34,-0.55 z"
           id="path3372" /><path
           style="fill:#000000;stroke-width:0"
           inkscape:connector-curvature="0"
           d="m 709.91,337.15 0.01,0.01 0,0 0,0 0,0.01 0,0.01 0.01,0 0,0.01 0,0 0,0.02 0.01,0.02 0.01,0.02 0,0.01 0.01,0.02 0,0.03 0.01,0.02 0,0.02 0.01,0.02 0.01,0.03 0.01,0.04 0.01,0.05 0,0.03 0.01,0.02 0,0.02 0.01,0.02 0,0.02 0.01,0.02 0,0.02 0,0.01 0.01,0.01 0,0.01 0,0 0,0.01 0,0.01 0,0 0,0.01 0,0 0,0 0,0.01 0,0 0,0 c 0,0.18 -0.14,0.49 -0.55,0.49 -0.7,0 -3.6,-0.28 -4.47,-0.35 -0.28,-0.03 -0.76,-0.07 -0.76,-0.8 0,-0.49 0.48,-0.49 0.9,-0.49 1.67,0 1.67,-0.24 1.67,-0.52 0,-0.25 -0.06,-0.46 -0.13,-0.77 l -4.92,-19.73 c -0.18,-0.63 -0.18,-0.7 -0.18,-0.77 0,-0.53 0.42,-1.12 1.19,-1.12 0.94,0 1.4,0.7 1.61,1.47 0.06,0.13 1.56,6.27 1.7,6.76 2.48,-0.24 4.47,-1.04 4.47,-2.86 0,-0.17 0,-0.35 -0.07,-0.7 -0.14,-0.52 -0.14,-0.7 -0.14,-1.08 0,-2.47 2.02,-3.59 3.69,-3.59 3.39,0 4.43,5.3 4.43,5.33 0,0.46 -0.45,0.46 -0.56,0.46 -0.48,0 -0.52,-0.17 -0.69,-0.84 -0.42,-1.5 -1.36,-3.97 -3.07,-3.97 -0.94,0 -1.22,0.87 -1.22,1.81 0,0.6 0,0.66 0.21,1.57 0.03,0.1 0.17,0.7 0.17,1.08 0,3.11 -4.18,3.59 -5.65,3.7 1.02,0.62 2.3,1.78 2.9,2.3 1.77,1.67 3.52,3.31 5.47,3.31 0.42,0 0.87,-0.1 1.15,-0.45 -1.5,-0.25 -1.81,-1.43 -1.81,-1.95 0,-0.77 0.59,-1.3 1.39,-1.3 0.95,0 1.99,0.77 1.99,2.24 0,1.15 -0.84,2.44 -2.68,2.44 -1.99,0 -3.81,-1.43 -5.58,-3.07 -1.47,-1.4 -2.62,-2.48 -4.05,-3.07 z"
           id="path3374" /><path
           style="fill:#000000;stroke-width:0"
           inkscape:connector-curvature="0"
           d="m 747.78,325.71 0.05,0.01 0.05,0 0.05,0 0.06,0 0.11,0 0.05,0 0.06,0.01 0.05,0 0.06,0.01 0.05,0.01 0.06,0.01 0.05,0.01 0.06,0.02 0.05,0.01 0.05,0.02 0.05,0.03 0.04,0.02 0.05,0.03 0.04,0.03 0.04,0.03 0.04,0.04 0.04,0.04 0.02,0.02 0.01,0.02 0.02,0.03 0.01,0.02 0.01,0.03 0.02,0.02 0.01,0.03 0.01,0.03 0.01,0.03 0.01,0.03 0.01,0.03 0,0.03 0.01,0.04 0.01,0.03 0,0.04 0,0.04 0,0.04 0,0.04 c 0,0.84 -0.83,0.84 -1.29,0.84 l -23.08,0 c -0.45,0 -1.29,0 -1.29,-0.84 0,-0.88 0.8,-0.88 1.33,-0.88 z"
           id="path3376" /><path
           style="fill:#000000;stroke-width:0"
           inkscape:connector-curvature="0"
           d="m 747.81,318.04 0.05,0 0.04,0 0.05,0 0.05,0 0.05,0.01 0.05,0 0.05,0 0.06,0.01 0.05,0 0.06,0.01 0.05,0.01 0.05,0.01 0.06,0.01 0.05,0.01 0.05,0.02 0.05,0.02 0.05,0.02 0.05,0.02 0.04,0.03 0.05,0.03 0.04,0.03 0.04,0.04 0.03,0.03 0.02,0.03 0.02,0.02 0.01,0.02 0.02,0.02 0.01,0.03 0.01,0.02 0.02,0.03 0.01,0.03 0.01,0.03 0.01,0.03 0.01,0.03 0,0.03 0.01,0.03 0.01,0.04 0,0.03 0,0.04 0,0.03 0,0.04 c 0,0.87 -0.8,0.87 -1.32,0.87 l -23.01,0 c -0.53,0 -1.33,0 -1.33,-0.87 0,-0.84 0.84,-0.84 1.29,-0.84 z"
           id="path3378" /><path
           style="fill:#000000;stroke-width:0"
           inkscape:connector-curvature="0"
           d="m 762.68,336.18 0,0.04 0,0.04 0,0.04 0,0.04 0,0.04 0,0.04 0,0.03 0,0.04 -0.01,0.03 0,0.03 0,0.04 0,0.03 -0.01,0.02 0,0.03 0,0.03 -0.01,0.03 0,0.02 0,0.02 -0.02,0.05 -0.01,0.04 -0.01,0.04 -0.02,0.03 -0.02,0.03 -0.02,0.03 -0.03,0.03 -0.02,0.02 -0.03,0.02 -0.04,0.02 -0.03,0.01 -0.04,0.01 -0.05,0.02 -0.05,0 -0.02,0.01 -0.03,0 -0.03,0.01 -0.02,0 -0.03,0 -0.03,0 -0.04,0 -0.03,0.01 -0.03,0 -0.04,0 -0.03,0 -0.04,0 -0.04,0 -0.04,0 -0.04,0 -0.04,0 -0.05,0 -0.04,0 c -2.24,-2.19 -5.41,-2.23 -6.84,-2.23 l 0,-1.25 c 0.84,0 3.14,0 5.05,0.97 l 0,-17.78 c 0,-1.15 0,-1.61 -3.48,-1.61 l -1.33,0 0,-1.25 12.45,0 0,1.25 -1.32,0 c -3.49,0 -3.49,0.46 -3.49,1.61 z"
           id="path3380" /><path
           style="fill:#000000;stroke-width:0"
           inkscape:connector-curvature="0"
           d="m 812.65,438.88 0,0.05 -0.01,0.06 0,0.05 0,0.05 0,0.05 0,0.05 0,0.04 0,0.05 0,0.04 0,0.04 0,0.04 0,0.04 0,0.04 -0.01,0.04 0,0.03 0,0.04 -0.01,0.03 0,0.03 -0.01,0.06 -0.01,0.05 -0.02,0.05 -0.01,0.05 -0.02,0.04 -0.02,0.04 -0.03,0.04 -0.03,0.03 -0.03,0.02 -0.03,0.03 -0.04,0.02 -0.05,0.02 -0.02,0.01 -0.03,0.01 -0.02,0 -0.03,0.01 -0.03,0.01 -0.03,0 -0.03,0.01 -0.03,0 -0.03,0.01 -0.04,0 -0.04,0 -0.03,0 -0.04,0.01 -0.04,0 -0.04,0 -0.05,0 -0.04,0 -0.05,0 -0.05,0.01 -0.05,0 -0.05,0 -0.05,0 c -3.09,-3.19 -7.47,-3.19 -9.07,-3.19 l 0,-1.55 c 1,0 3.94,0 6.53,1.3 l 0,-25.81 c 0,-1.79 -0.15,-2.39 -4.63,-2.39 l -1.6,0 0,-1.54 16.14,0 0,1.54 -1.59,0 c -4.49,0 -4.63,0.55 -4.63,2.39 z"
           id="path3382" /><polyline
           style="fill:#000000;fill-rule:nonzero;stroke-width:0"
           points="786,385 835.92,385 835.92,387.04 786,387.04 "
           id="polyline3384" /><path
           style="fill:#000000;stroke-width:0"
           inkscape:connector-curvature="0"
           d="m 800.3,374.02 0,0.01 0,0 0,0.01 0,0.01 0,0.01 -0.01,0.01 0,0.02 0,0.02 0,0.02 -0.01,0.02 0,0.02 -0.01,0.02 -0.01,0.03 -0.01,0.02 -0.01,0.03 -0.01,0.02 -0.01,0.02 -0.02,0.03 -0.02,0.02 -0.02,0.03 -0.02,0.02 -0.01,0.01 -0.02,0.01 -0.01,0.01 -0.01,0.01 -0.02,0.01 -0.01,0.01 -0.02,0.01 -0.02,0.01 -0.01,0.01 -0.02,0.01 -0.02,0.01 -0.02,0 -0.02,0.01 -0.02,0.01 -0.02,0 -0.03,0.01 -0.02,0 -0.03,0.01 -0.02,0 -0.03,0 -0.02,0.01 -0.03,0 -0.03,0 -0.03,0 c -1.15,0 -4.78,-0.4 -6.08,-0.5 -0.4,-0.05 -0.95,-0.1 -0.95,-1 0,-0.59 0.45,-0.59 1.2,-0.59 2.39,0 2.49,-0.35 2.49,-0.85 l -0.15,-0.99 -7.22,-28.7 c -0.2,-0.69 -0.2,-0.8 -0.2,-1.09 0,-1.15 0.99,-1.4 1.44,-1.4 0.65,0 1.4,0.45 1.7,1.05 0.25,0.45 2.49,9.66 2.79,10.91 1.69,-0.15 5.78,-0.95 5.78,-4.24 0,-0.35 0,-0.55 -0.15,-1.04 -0.1,-0.6 -0.2,-1.2 -0.2,-1.75 0,-2.93 1.99,-4.93 4.58,-4.93 1.5,0 2.84,0.8 3.93,2.64 1.25,2.2 1.8,4.93 1.8,5.03 0,0.5 -0.45,0.5 -0.6,0.5 -0.5,0 -0.55,-0.2 -0.7,-0.89 -0.99,-3.64 -2.14,-6.18 -4.33,-6.18 -0.95,0 -1.6,0.55 -1.6,2.34 0,0.84 0.21,1.99 0.41,2.79 0.19,0.85 0.19,1.05 0.19,1.54 0,3.24 -3.13,4.69 -7.37,5.23 1.55,0.9 3.14,2.5 4.29,3.69 2.39,2.64 4.68,4.78 7.12,4.78 0.3,0 0.35,0 0.45,-0.05 0.59,-0.1 0.64,-0.1 1.04,-0.4 0.1,-0.05 0.1,-0.09 0.2,-0.2 -2.39,-0.15 -2.84,-2.09 -2.84,-2.68 0,-0.8 0.55,-1.75 1.9,-1.75 1.29,0 2.73,1.1 2.73,3.04 0,1.5 -1.14,3.14 -3.38,3.14 -1.4,0 -3.69,-0.4 -7.27,-4.39 -1.7,-1.89 -3.64,-3.88 -5.53,-4.63 z"
           id="path3386" /><path
           style="fill:#000000;stroke-width:0"
           inkscape:connector-curvature="0"
           d="m 830.61,360.35 -1.19,0 c -0.1,-0.77 -0.45,-2.83 -0.9,-3.18 -0.28,-0.21 -2.97,-0.21 -3.45,-0.21 l -6.42,0 c 3.66,3.25 4.88,4.22 6.97,5.86 2.58,2.06 4.99,4.22 4.99,7.54 0,4.21 -3.7,6.79 -8.16,6.79 -4.33,0 -7.25,-3.03 -7.25,-6.24 0,-1.78 1.5,-1.95 1.84,-1.95 0.84,0 1.86,0.59 1.86,1.85 0,0.62 -0.25,1.85 -2.06,1.85 1.08,2.47 3.45,3.24 5.09,3.24 3.48,0 5.3,-2.72 5.3,-5.54 0,-3.04 -2.16,-5.45 -3.28,-6.7 l -8.4,-8.3 c -0.35,-0.31 -0.35,-0.38 -0.35,-1.36 l 14.36,0 z"
           id="path3388" /></g>    </g>
    <g
       id="g3448"
       transform="matrix(0.71136562,0,0,0.91001574,-201.60748,424.54827)">
      <g
         word-spacing="normal"
         letter-spacing="normal"
         font-size-adjust="none"
         font-stretch="normal"
         font-weight="normal"
         font-variant="normal"
         font-style="normal"
         stroke-miterlimit="10.433"
         xml:space="preserve"
         transform="matrix(1.0629921,0,0,-1.0629921,-186.02362,789.27165)"
         id="g3450"
         style="font-style:normal;font-variant:normal;font-weight:normal;font-stretch:normal;letter-spacing:normal;word-spacing:normal;text-anchor:start;fill:none;fill-opacity:1;fill-rule:evenodd;stroke:#000000;stroke-linecap:butt;stroke-linejoin:miter;stroke-miterlimit:10.43299961;stroke-dasharray:none;stroke-dashoffset:0;stroke-opacity:1"><path
           id="path3452"
           d="m 477.77,432.38 0,0 0,0.01 0,0 0,0.01 0,0.01 0,0 0,0.01 0.01,0.01 0,0.02 0,0.02 0.01,0.02 0,0.03 0.01,0.02 0,0.03 0.01,0.03 0.01,0.03 0,0.02 0.01,0.03 0.01,0.06 0.02,0.06 0,0.03 0.01,0.03 0.01,0.02 0,0.03 0.01,0.02 0,0.03 0.01,0.02 0,0.02 0.01,0.01 0,0 0,0.01 0,0.01 0,0.01 0,0 0.01,0.01 0,0.01 0,0 0,0 0,0.01 0,0 c 0,0.05 0,0.5 -0.6,0.5 -0.5,0 -0.55,-0.15 -0.75,-1 l -2.89,-11.5 c -7.92,-0.25 -15.24,-6.88 -15.24,-13.65 0,-4.73 3.49,-8.67 9.56,-9.02 l 0.25,1.1 c -2.98,0.15 -6.57,1.89 -6.57,6.87 0,5.98 4.28,12.95 11.71,13.6 L 468.25,399.5 468,398.4 c -0.39,-1.54 -0.74,-3.13 -1.14,-4.68 -0.6,-2.34 -1.1,-4.24 -1.1,-4.38 0,-0.5 0.35,-0.55 0.6,-0.55 0.25,0 0.35,0.05 0.5,0.2 0.1,0.1 0.4,1.29 0.55,1.99 l 1.89,7.42 0.25,1.1 5.13,20.47 c 3.78,-0.2 6.62,-2.49 6.62,-6.87 0,-5.88 -4.28,-13 -11.75,-13.6 l -0.25,-1.1 c 8.02,0.25 15.24,6.98 15.24,13.65 0,3.93 -2.64,8.52 -9.56,9.02 z"
           inkscape:connector-curvature="0"
           style="fill:#000000;stroke-width:0" /><path
           id="path3454"
           d="m 489.25,393.2 -0.01,-0.05 -0.01,-0.04 -0.02,-0.05 -0.01,-0.05 -0.02,-0.05 -0.01,-0.06 -0.02,-0.05 -0.01,-0.05 -0.03,-0.12 -0.03,-0.11 -0.03,-0.11 -0.02,-0.11 -0.02,-0.05 -0.01,-0.06 -0.01,-0.05 -0.01,-0.05 -0.01,-0.04 -0.01,-0.05 -0.01,-0.04 -0.01,-0.04 -0.01,-0.04 0,-0.03 -0.01,-0.03 0,-0.03 -0.01,-0.03 0,-0.02 0,0 0,-0.01 0,-0.01 0,0 c 0,-0.77 0.62,-1.12 1.18,-1.12 0.63,0 1.19,0.46 1.36,0.77 0.17,0.31 0.45,1.43 0.63,2.16 0.17,0.66 0.56,2.27 0.76,3.14 0.21,0.76 0.43,1.53 0.6,2.33 0.38,1.43 0.45,1.71 1.46,3.14 0.98,1.4 2.62,3.21 5.23,3.21 2.03,0 2.06,-1.78 2.06,-2.44 0,-2.09 -1.5,-5.96 -2.06,-7.43 -0.38,-0.97 -0.52,-1.29 -0.52,-1.88 0,-1.85 1.53,-3 3.31,-3 3.49,0 5.03,4.81 5.03,5.33 0,0.46 -0.46,0.46 -0.56,0.46 -0.49,0 -0.53,-0.21 -0.67,-0.59 -0.8,-2.79 -2.3,-4.22 -3.69,-4.22 -0.73,0 -0.87,0.49 -0.87,1.22 0,0.8 0.17,1.25 0.8,2.82 0.42,1.08 1.84,4.78 1.84,6.73 0,3.39 -2.68,3.98 -4.53,3.98 -2.89,0 -4.84,-1.78 -5.89,-3.18 -0.24,2.41 -2.3,3.18 -3.73,3.18 -1.5,0 -2.3,-1.08 -2.76,-1.88 -0.76,-1.3 -1.25,-3.29 -1.25,-3.46 0,-0.45 0.49,-0.45 0.59,-0.45 0.49,0 0.52,0.11 0.77,1.05 0.52,2.05 1.18,3.76 2.54,3.76 0.91,0 1.16,-0.77 1.16,-1.71 0,-0.66 -0.32,-1.95 -0.56,-2.89 -0.25,-0.94 -0.6,-2.37 -0.77,-3.14 z"
           inkscape:connector-curvature="0"
           style="fill:#000000;stroke-width:0" /><path
           id="path3456"
           d="m 528.49,387.04 0,0.03 0,0.03 -0.01,0.01 0,0.02 0,0.01 -0.01,0.02 0,0.02 -0.01,0.01 -0.01,0.02 -0.01,0.02 -0.01,0.03 -0.01,0.02 -0.02,0.02 -0.02,0.03 -0.02,0.03 -0.02,0.03 -0.03,0.03 -0.03,0.04 -0.01,0.02 -0.02,0.02 -0.02,0.02 -0.02,0.02 -0.02,0.02 -0.02,0.03 -0.02,0.02 -0.02,0.02 -0.02,0.03 -0.03,0.02 -0.02,0.03 -0.03,0.03 -0.02,0.03 -0.03,0.03 -0.03,0.03 -0.03,0.03 -0.03,0.03 -0.03,0.03 -0.04,0.04 -0.03,0.03 -0.04,0.04 -0.03,0.03 -0.04,0.04 -0.04,0.04 c -6.23,6.28 -7.82,15.69 -7.82,23.31 0,8.67 1.9,17.34 8.02,23.57 0.65,0.59 0.65,0.69 0.65,0.84 0,0.35 -0.2,0.5 -0.5,0.5 -0.5,0 -4.98,-3.39 -7.92,-9.72 -2.54,-5.47 -3.14,-11 -3.14,-15.19 0,-3.88 0.55,-9.91 3.29,-15.54 2.99,-6.12 7.27,-9.36 7.77,-9.36 0.3,0 0.5,0.15 0.5,0.49 z"
           inkscape:connector-curvature="0"
           style="fill:#000000;stroke-width:0" /><path
           id="path3458"
           d="m 534.94,400.94 -0.01,-0.03 -0.01,-0.03 -0.01,-0.03 -0.01,-0.03 -0.01,-0.06 -0.02,-0.05 -0.01,-0.05 -0.01,-0.05 -0.02,-0.05 -0.01,-0.04 -0.01,-0.04 -0.01,-0.04 -0.01,-0.04 0,-0.03 -0.01,-0.04 -0.01,-0.03 0,-0.03 -0.01,-0.03 0,-0.03 -0.01,-0.03 0,-0.02 0,-0.03 -0.01,-0.05 0,-0.06 0,-0.05 0,-0.05 0,-0.03 0,-0.03 0,-0.03 0,-0.03 c 0,-0.9 0.7,-1.35 1.44,-1.35 1.5,0 1.8,1.2 2.2,2.79 0.5,1.8 0.19,0.85 2.34,9.22 4.18,-0.15 8.51,-1 8.51,-4.24 0,-0.34 0,-0.6 -0.09,-1.09 -0.2,-0.8 -0.25,-1.35 -0.25,-1.75 0,-2.93 1.99,-4.93 4.58,-4.93 1.59,0 2.89,0.9 3.88,2.59 1.25,2.09 1.85,4.98 1.85,5.08 0,0.5 -0.45,0.5 -0.6,0.5 -0.5,0 -0.55,-0.2 -0.7,-0.89 -0.94,-3.44 -2.09,-6.18 -4.33,-6.18 -1.05,0 -1.59,0.65 -1.59,2.39 0,0.75 0.2,1.94 0.4,2.79 0.09,0.45 0.24,1.09 0.24,1.64 0,4.68 -6.87,5.03 -9.66,5.13 1.64,0.9 3.24,2.25 4.58,3.39 2.29,1.94 3.74,3.14 5.73,3.99 -0.1,-0.26 -0.25,-0.85 -0.25,-1.1 0,-0.6 0.35,-1.74 1.89,-1.74 1.6,0 2.69,1.44 2.69,2.69 0,0.45 -0.19,1.74 -1.99,1.74 -3.04,0 -5.98,-2.49 -8.17,-4.33 -3.39,-2.89 -4.58,-3.64 -6.37,-4.24 0.15,0.55 0.74,3.04 0.99,3.89 0.3,1.29 0.9,3.63 0.9,3.88 0,0.85 -0.6,1.35 -1.44,1.35 -0.16,0 -1.55,0 -2,-1.8 z"
           inkscape:connector-curvature="0"
           style="fill:#000000;stroke-width:0" /><path
           id="path3460"
           d="m 574.4,411.45 -0.01,0.37 0,0.39 -0.01,0.39 -0.01,0.41 -0.04,0.84 -0.06,0.88 -0.09,0.92 -0.1,0.94 -0.14,0.98 -0.16,1 -0.2,1.02 -0.23,1.04 -0.27,1.05 -0.3,1.06 -0.35,1.06 -0.39,1.07 -0.22,0.53 -0.22,0.54 -0.24,0.53 -0.25,0.53 c -2.99,6.12 -7.27,9.36 -7.77,9.36 -0.3,0 -0.5,-0.2 -0.5,-0.5 0,-0.15 0,-0.25 0.94,-1.15 4.89,-4.92 7.73,-12.85 7.73,-23.26 0,-8.52 -1.85,-17.28 -8.02,-23.56 -0.65,-0.6 -0.65,-0.69 -0.65,-0.85 0,-0.29 0.2,-0.49 0.5,-0.49 0.5,0 4.98,3.38 7.92,9.71 2.54,5.48 3.14,11.01 3.14,15.19 z"
           inkscape:connector-curvature="0"
           style="fill:#000000;stroke-width:0" /><path
           id="path3462"
           d="m 628.22,415.29 0.14,0 0.15,0 0.15,0.01 0.07,0 0.07,0 0.07,0.01 0.08,0.01 0.07,0.01 0.07,0.01 0.06,0.02 0.07,0.01 0.07,0.02 0.06,0.02 0.06,0.03 0.06,0.03 0.05,0.03 0.06,0.03 0.05,0.04 0.04,0.04 0.05,0.05 0.03,0.05 0.02,0.03 0.02,0.02 0.02,0.03 0.01,0.03 0.02,0.03 0.01,0.04 0.01,0.03 0.01,0.04 0.01,0.03 0.01,0.04 0.01,0.04 0,0.04 0.01,0.04 0,0.04 0,0.05 0,0.05 c 0,0.99 -0.94,0.99 -1.64,0.99 l -29.84,0 c -0.7,0 -1.64,0 -1.64,-0.99 0,-1 0.94,-1 1.69,-1 z"
           inkscape:connector-curvature="0"
           style="fill:#000000;stroke-width:0" /><path
           id="path3464"
           d="m 628.27,405.62 0.13,0.01 0.14,0 0.14,0 0.07,0.01 0.07,0 0.07,0.01 0.07,0.01 0.07,0.01 0.07,0.01 0.06,0.01 0.07,0.02 0.06,0.02 0.06,0.02 0.06,0.02 0.06,0.03 0.06,0.03 0.05,0.04 0.05,0.04 0.04,0.04 0.05,0.04 0.02,0.03 0.02,0.03 0.01,0.02 0.02,0.03 0.02,0.03 0.01,0.03 0.02,0.03 0.01,0.03 0.01,0.04 0.01,0.03 0.01,0.04 0.01,0.04 0.01,0.04 0,0.04 0.01,0.04 0,0.04 0,0.05 0,0.04 c 0,1 -0.94,1 -1.69,1 l -29.74,0 c -0.75,0 -1.69,0 -1.69,-1 0,-1 0.94,-1 1.64,-1 z"
           inkscape:connector-curvature="0"
           style="fill:#000000;stroke-width:0" /><path
           id="path3466"
           d="m 707.68,440.18 0,0.04 0,0.04 0,0.04 0,0.04 0,0.04 0,0.04 0,0.03 0,0.04 -0.01,0.03 0,0.03 0,0.04 0,0.03 -0.01,0.02 0,0.03 0,0.03 -0.01,0.03 0,0.02 0,0.02 -0.02,0.05 -0.01,0.04 -0.01,0.04 -0.02,0.03 -0.02,0.03 -0.02,0.03 -0.03,0.03 -0.02,0.02 -0.03,0.02 -0.04,0.02 -0.03,0.01 -0.04,0.01 -0.05,0.02 -0.05,0 -0.02,0.01 -0.03,0 -0.03,0.01 -0.02,0 -0.03,0 -0.03,0 -0.04,0 -0.03,0.01 -0.03,0 -0.04,0 -0.03,0 -0.04,0 -0.04,0 -0.04,0 -0.04,0 -0.04,0 -0.05,0 -0.04,0 c -2.24,-2.19 -5.41,-2.23 -6.84,-2.23 l 0,-1.25 c 0.84,0 3.14,0 5.05,0.97 l 0,-17.78 c 0,-1.15 0,-1.61 -3.48,-1.61 l -1.33,0 0,-1.25 12.45,0 0,1.25 -1.32,0 c -3.49,0 -3.49,0.46 -3.49,1.61 z"
           inkscape:connector-curvature="0"
           style="fill:#000000;stroke-width:0" /><polyline
           id="polyline3468"
           points="652,410 758.68,410 758.68,412.04 652,412.04 "
           style="fill:#000000;fill-rule:nonzero;stroke-width:0" /><path
           id="path3470"
           d="m 670.45,386.72 0,1.25 -3.88,0 0,15.56 c 0,0.73 0,0.97 -0.76,0.97 -0.42,0 -0.56,0 -0.91,-0.49 l -11.54,-16.04 0,-1.25 10.25,0 0.24,1.25 -9.2,0 9.2,12.76 0,-12.76 -0.24,-1.25 0,-2.86 c 0,-1.19 0,-1.61 -2.83,-1.61 l -0.94,0 0,-1.25 10.5,0 0,1.25 -0.94,0 c -2.83,0 -2.83,0.42 -2.83,1.61 l 0,2.86 z"
           inkscape:connector-curvature="0"
           style="fill:#000000;stroke-width:0" /><path
           id="path3472"
           d="m 682.84,393.66 4.15,0 c -0.52,-2.09 -1.29,-5.27 -1.29,-8.02 0,-1.4 0.18,-2.34 0.39,-3.1 0.56,-1.75 1.01,-1.89 1.57,-1.89 0.8,0 1.64,0.73 1.64,1.57 0,0.28 -0.07,0.42 -0.28,0.77 -0.67,1.29 -1.29,3.28 -1.29,6.13 0,0.67 0,2.06 0.49,4.54 l 4.35,0 c 0.63,0 0.91,0 1.29,0.28 0.49,0.35 0.6,0.9 0.6,1.08 0,1.01 -0.91,1.01 -1.5,1.01 l -13.15,0 c -1.43,0 -2.4,-0.32 -3.97,-1.78 -0.91,-0.8 -2.27,-2.68 -2.27,-3 0,-0.42 0.45,-0.42 0.59,-0.42 0.39,0 0.42,0.07 0.63,0.38 1.78,2.45 3.94,2.45 4.71,2.45 l 2.12,0 c -1.08,-3.84 -2.96,-7.95 -4.01,-10.05 -0.2,-0.45 -0.56,-1.18 -0.66,-1.32 -0.03,-0.14 -0.1,-0.28 -0.1,-0.52 0,-0.56 0.42,-1.12 1.22,-1.12 1.39,0 1.77,1.57 2.61,4.71 z"
           inkscape:connector-curvature="0"
           style="fill:#000000;stroke-width:0" /><path
           id="path3474"
           d="m 710.67,395.81 -1.05,0 c -0.07,-0.48 -0.32,-2.02 -0.72,-2.27 -0.2,-0.15 -2.29,-0.15 -2.66,-0.15 l -4.89,0 c 1.65,1.22 3.49,2.62 4.99,3.61 2.24,1.55 4.33,2.99 4.33,5.63 0,3.19 -3.01,4.96 -6.58,4.96 -3.36,0 -5.82,-1.95 -5.82,-4.39 0,-1.29 1.09,-1.52 1.44,-1.52 0.67,0 1.47,0.45 1.47,1.48 0,0.89 -0.65,1.39 -1.42,1.46 0.7,1.13 2.14,1.87 3.81,1.87 2.42,0 4.43,-1.44 4.43,-3.88 0,-2.09 -1.44,-3.69 -3.35,-5.31 l -6.08,-5.16 c -0.25,-0.22 -0.28,-0.22 -0.3,-0.39 l 0,-0.75 11.58,0 z"
           inkscape:connector-curvature="0"
           style="fill:#000000;stroke-width:0" /><path
           id="path3476"
           d="m 725.24,389.86 0.12,0.07 0.13,0.07 0.25,0.16 0.26,0.17 0.25,0.17 0.26,0.17 0.25,0.17 0.24,0.17 0.12,0.08 0.11,0.08 0.11,0.08 0.11,0.08 0.11,0.07 0.1,0.08 0.09,0.06 0.09,0.07 0.09,0.06 0.08,0.06 0.08,0.05 0.06,0.05 0.07,0.05 0.05,0.04 0.05,0.03 0.04,0.03 0.03,0.02 0.02,0.02 c 2.41,1.81 3.25,2.3 4.36,2.68 -0.07,-0.14 -0.1,-0.41 -0.1,-0.59 0,-0.84 0.56,-1.32 1.36,-1.32 1.12,0 1.95,0.97 1.95,1.91 0,0.87 -0.56,1.33 -1.46,1.33 -2.34,0 -4.71,-1.78 -6.56,-3.21 -2.72,-2.02 -3.66,-2.41 -4.53,-2.65 0.41,1.64 0.48,1.92 0.62,2.54 0.25,0.84 0.63,2.38 0.63,2.55 0,0.63 -0.48,1.12 -1.18,1.12 -0.66,0 -1.26,-0.49 -1.47,-0.91 -0.17,-0.42 -3.42,-13.46 -3.42,-13.7 0,-0.77 0.63,-1.12 1.19,-1.12 1.25,0 1.54,1.15 1.67,1.74 0.07,0.18 0.77,3.04 1.64,6.52 1.82,0 6.63,-0.13 6.63,-2.82 0,-0.04 -0.04,-0.35 -0.14,-0.77 -0.1,-0.55 -0.1,-0.73 -0.1,-1.08 0,-2.47 2.02,-3.59 3.69,-3.59 3.42,0 4.43,5.3 4.43,5.33 0,0.46 -0.46,0.46 -0.56,0.46 -0.49,0 -0.52,-0.17 -0.7,-0.84 -0.38,-1.36 -1.29,-3.97 -3.06,-3.97 -0.95,0 -1.23,0.87 -1.23,1.81 0,0.6 0,0.66 0.21,1.57 0.11,0.38 0.18,0.73 0.18,1.15 0,3.7 -6.14,3.7 -7.22,3.7 z"
           inkscape:connector-curvature="0"
           style="fill:#000000;stroke-width:0" /><path
           id="path3478"
           d="m 753.67,395.81 -1.05,0 c -0.07,-0.48 -0.32,-2.02 -0.72,-2.27 -0.2,-0.15 -2.29,-0.15 -2.66,-0.15 l -4.89,0 c 1.65,1.22 3.49,2.62 4.99,3.61 2.24,1.55 4.33,2.99 4.33,5.63 0,3.19 -3.01,4.96 -6.58,4.96 -3.36,0 -5.82,-1.95 -5.82,-4.39 0,-1.29 1.09,-1.52 1.44,-1.52 0.67,0 1.47,0.45 1.47,1.48 0,0.89 -0.65,1.39 -1.42,1.46 0.7,1.13 2.14,1.87 3.81,1.87 2.42,0 4.43,-1.44 4.43,-3.88 0,-2.09 -1.44,-3.69 -3.35,-5.31 l -6.08,-5.16 c -0.25,-0.22 -0.28,-0.22 -0.3,-0.39 l 0,-0.75 11.58,0 z"
           inkscape:connector-curvature="0"
           style="fill:#000000;stroke-width:0" /><path
           id="path3480"
           d="m 786.55,395.16 -0.03,-0.37 -0.03,-0.37 -0.07,-0.72 -0.08,-0.68 -0.09,-0.65 -0.09,-0.61 -0.09,-0.59 -0.11,-0.55 -0.11,-0.53 -0.12,-0.49 -0.12,-0.47 -0.13,-0.44 -0.14,-0.41 -0.14,-0.38 -0.15,-0.36 -0.16,-0.34 -0.16,-0.3 -0.17,-0.29 -0.17,-0.26 -0.18,-0.24 -0.19,-0.22 -0.2,-0.19 -0.2,-0.18 -0.2,-0.15 -0.22,-0.14 -0.22,-0.12 -0.22,-0.1 -0.24,-0.08 -0.23,-0.06 -0.25,-0.05 -0.25,-0.04 -0.26,-0.02 -0.26,-0.01 c -0.65,0 -2.14,0.15 -3.19,1.05 1.45,0.2 1.85,1.34 1.85,2.04 0,1.45 -1.1,2.09 -2.05,2.09 -0.99,0 -2.09,-0.64 -2.09,-2.14 0,-2.39 2.49,-4.13 5.48,-4.13 4.73,0 7.12,4.33 8.22,8.82 0.65,2.59 2.44,17.08 2.84,22.61 l 0.94,12.4 c 0.7,9.17 2.39,10.41 4.64,10.41 0.5,0 2.04,-0.1 3.13,-1.04 -1.44,-0.2 -1.84,-1.35 -1.84,-2.04 0,-1.45 1.1,-2.1 2.04,-2.1 1,0 2.1,0.65 2.1,2.15 0,2.39 -2.5,4.13 -5.49,4.13 -4.73,0 -6.67,-4.83 -7.51,-8.62 -0.6,-2.74 -2.39,-16.79 -2.84,-22.81 z"
           inkscape:connector-curvature="0"
           style="fill:#000000;stroke-width:0" /><path
           id="path3482"
           d="m 826.16,435.55 -0.17,0.2 -0.17,0.19 -0.15,0.18 -0.15,0.18 -0.14,0.16 -0.14,0.16 -0.13,0.15 -0.13,0.14 -0.12,0.14 -0.12,0.13 -0.12,0.13 -0.11,0.12 -0.11,0.11 -0.1,0.11 -0.11,0.11 -0.1,0.1 -0.2,0.19 -0.19,0.19 -0.2,0.17 -0.19,0.17 -0.21,0.16 -0.21,0.17 -0.11,0.08 -0.12,0.09 -0.12,0.08 -0.12,0.09 c -2.12,1.54 -4.35,2.13 -6.27,2.13 -4.33,0 -7.47,-3.7 -7.47,-7.88 l 0.98,0 c 0,3.34 2.72,5.96 5.93,5.96 3.24,0 5.47,-2.65 8.82,-6.69 l 0,0 c -1.39,-2.27 -4.43,-5.79 -8.68,-5.79 -3.59,0 -6.07,3.17 -6.07,6.52 l -0.98,0 c 0,-4.08 3,-7.85 7.36,-7.85 4.85,0 8.23,3.97 9.49,5.82 1.85,-2.16 2.4,-2.75 3.73,-3.69 2.13,-1.54 4.36,-2.13 6.27,-2.13 4.33,0 7.47,3.7 7.47,7.88 l -0.98,0 c 0,-3.35 -2.72,-5.96 -5.93,-5.96 -3.24,0 -5.47,2.65 -8.82,6.7 l 0,0 c 1.39,2.26 4.43,5.78 8.68,5.78 3.59,0 6.07,-3.17 6.07,-6.52 l 0.98,0 c 0,4.08 -3,7.85 -7.36,7.85 -4.85,0 -8.23,-3.98 -9.48,-5.83 z"
           inkscape:connector-curvature="0"
           style="fill:#000000;stroke-width:0" /><path
           id="path3484"
           d="m 814.99,392.12 0,0.71 -0.02,0.68 -0.03,0.66 -0.04,0.64 -0.06,0.62 -0.08,0.59 -0.09,0.58 -0.11,0.56 -0.12,0.55 -0.15,0.53 -0.17,0.51 -0.19,0.5 -0.21,0.49 -0.24,0.48 -0.26,0.47 -0.14,0.24 -0.15,0.23 c -1.08,1.6 -3.24,2.99 -6.03,2.99 l 0,-0.97 c 1.88,0 3.7,-1.15 4.33,-3.18 0.55,-1.88 0.59,-4.39 0.59,-7.42 0,-2.58 0,-5.17 -0.45,-7.36 -0.7,-3.17 -3.07,-3.94 -4.47,-3.94 l 0,0 c -1.6,0 -3.73,0.94 -4.43,3.8 -0.49,2.06 -0.49,4.92 -0.49,7.5 0,2.54 0,5.19 0.53,7.11 0.73,2.76 2.96,3.49 4.39,3.49 l 0,0.97 c -8.09,0 -8.09,-9.52 -8.09,-12.03 0,-2.51 0,-11.82 8.09,-11.82 8.09,0 8.09,9.31 8.09,11.82 z"
           inkscape:connector-curvature="0"
           style="fill:#000000;stroke-width:0" /><path
           id="path3486"
           d="m 876.22,437.64 0,0.06 -0.01,0.05 0,0.05 0,0.05 0,0.05 0,0.05 0,0.04 0,0.05 -0.01,0.04 0,0.04 0,0.04 -0.01,0.03 -0.01,0.04 -0.01,0.03 -0.01,0.03 -0.01,0.03 -0.01,0.03 -0.01,0.02 -0.02,0.03 -0.01,0.02 -0.02,0.02 -0.02,0.02 -0.03,0.02 -0.02,0.01 -0.03,0.02 -0.03,0.01 -0.03,0.01 -0.01,0 -0.02,0.01 -0.02,0 -0.02,0 -0.02,0.01 -0.02,0 -0.02,0 -0.02,0 -0.02,0 -0.02,0 c -0.18,0 -0.25,0 -0.7,-0.42 -0.07,-0.03 -0.42,-0.34 -0.63,-0.52 -1.05,0.73 -2.37,0.94 -3.66,0.94 -4.99,0 -6.17,-2.61 -6.17,-4.36 0,-1.11 0.49,-2.02 1.33,-2.72 1.32,-1.15 2.64,-1.39 4.81,-1.74 1.74,-0.32 4.56,-0.8 4.56,-3.14 0,-1.36 -0.94,-2.96 -4.29,-2.96 -3.34,0 -4.56,2.19 -5.19,4.57 -0.11,0.45 -0.14,0.59 -0.63,0.59 -0.59,0 -0.59,-0.25 -0.59,-0.94 l 0,-4.29 c 0,-0.6 0,-0.91 0.49,-0.91 0.31,0 0.97,0.73 1.67,1.5 1.54,-1.43 3.42,-1.5 4.25,-1.5 4.54,0 6.21,2.44 6.21,4.92 0,1.32 -0.59,2.37 -1.5,3.21 -1.32,1.22 -2.93,1.49 -4.15,1.7 -2.79,0.49 -5.05,0.91 -5.05,2.76 0,1.12 0.94,2.47 4.25,2.47 4.04,0 4.22,-2.82 4.29,-3.83 0.04,-0.38 0.45,-0.38 0.59,-0.38 0.6,0 0.6,0.24 0.6,0.9 z"
           inkscape:connector-curvature="0"
           style="fill:#000000;stroke-width:0" /><path
           id="path3488"
           d="m 886.35,444.52 0,0.09 0,0.09 -0.02,0.1 -0.01,0.09 -0.02,0.09 -0.03,0.09 -0.03,0.09 -0.03,0.09 -0.04,0.09 -0.04,0.08 -0.05,0.09 -0.05,0.08 -0.06,0.08 -0.05,0.07 -0.07,0.08 -0.06,0.07 -0.07,0.06 -0.07,0.07 -0.08,0.06 -0.07,0.06 -0.09,0.05 -0.08,0.05 -0.09,0.05 -0.09,0.04 -0.09,0.04 -0.1,0.03 -0.1,0.03 -0.1,0.03 -0.1,0.02 -0.11,0.01 -0.1,0.01 -0.11,0 c -1.05,0 -1.99,-0.84 -1.99,-1.98 0,-1.26 1.01,-2.03 1.99,-2.03 1.11,0 2.01,0.87 2.01,2.03 z"
           inkscape:connector-curvature="0"
           style="fill:#000000;stroke-width:0" /><path
           id="path3490"
           d="m 881.06,437.99 0,-1.25 c 2.19,0 2.51,-0.21 2.51,-1.92 l 0,-9.07 c 0,-1.5 -0.35,-1.5 -2.62,-1.5 l 0,-1.25 7.6,0 0,1.25 c -2.02,0 -2.37,0 -2.37,1.47 l 0,12.66 z"
           inkscape:connector-curvature="0"
           style="fill:#000000;stroke-width:0" /><path
           id="path3492"
           d="m 907.96,433.57 -0.01,0.28 -0.01,0.27 -0.02,0.27 -0.03,0.25 -0.05,0.25 -0.05,0.25 -0.06,0.23 -0.07,0.23 -0.08,0.22 -0.08,0.21 -0.1,0.2 -0.11,0.19 -0.12,0.19 -0.14,0.17 -0.14,0.17 -0.15,0.16 -0.16,0.15 -0.18,0.14 -0.18,0.13 -0.2,0.13 -0.21,0.11 -0.22,0.1 -0.23,0.1 -0.24,0.08 -0.26,0.08 -0.27,0.06 -0.28,0.06 -0.29,0.05 -0.3,0.03 -0.32,0.03 -0.33,0.01 -0.34,0.01 c -2.86,0 -4.71,-1.57 -5.69,-3.38 l -0.03,0 0,3.38 -5.13,-0.39 0,-1.25 c 2.34,0 2.62,-0.24 2.62,-1.95 l 0,-9.04 c 0,-1.5 -0.35,-1.5 -2.62,-1.5 l 0,-1.25 7.99,0 0,1.25 c -2.27,0 -2.62,0 -2.62,1.5 l 0,6.28 c 0,3.66 2.9,5.37 5.2,5.37 2.44,0 2.75,-1.92 2.75,-3.7 l 0,-7.95 c 0,-1.5 -0.35,-1.5 -2.61,-1.5 l 0,-1.25 7.98,0 0,1.25 c -2.27,0 -2.61,0 -2.61,1.5 z"
           inkscape:connector-curvature="0"
           style="fill:#000000;stroke-width:0" /><path
           id="path3494"
           d="m 924.38,449.15 -0.61,-0.44 -0.58,-0.46 -0.55,-0.48 -0.52,-0.49 -0.5,-0.5 -0.47,-0.51 -0.45,-0.52 -0.42,-0.54 -0.4,-0.54 -0.38,-0.55 -0.35,-0.56 -0.33,-0.56 -0.31,-0.57 -0.29,-0.57 -0.26,-0.58 -0.25,-0.58 -0.23,-0.58 -0.2,-0.58 -0.19,-0.59 -0.18,-0.58 -0.15,-0.58 -0.14,-0.58 -0.12,-0.57 -0.11,-0.58 -0.1,-0.56 -0.07,-0.56 -0.07,-0.55 -0.05,-0.55 -0.04,-0.54 -0.03,-0.52 -0.01,-0.52 -0.01,-0.51 c 0,-4.91 1.46,-12.55 8.37,-17.43 0.28,0 0.69,0 0.69,0.41 0,0.22 -0.1,0.29 -0.34,0.53 -4.64,4.18 -6.35,10.11 -6.35,16.46 0,9.41 3.59,14.01 6.45,16.6 0.14,0.13 0.24,0.24 0.24,0.41 0,0.42 -0.41,0.42 -0.69,0.42 z"
           inkscape:connector-curvature="0"
           style="fill:#000000;stroke-width:0" /><path
           id="path3496"
           d="m 936.24,431.86 0.12,0.07 0.13,0.07 0.25,0.16 0.26,0.17 0.25,0.17 0.26,0.17 0.25,0.17 0.24,0.17 0.12,0.08 0.11,0.08 0.11,0.08 0.11,0.08 0.11,0.07 0.1,0.08 0.09,0.06 0.09,0.07 0.09,0.06 0.08,0.06 0.08,0.05 0.06,0.05 0.07,0.05 0.05,0.04 0.05,0.03 0.04,0.03 0.03,0.02 0.02,0.02 c 2.41,1.81 3.25,2.3 4.36,2.68 -0.07,-0.14 -0.1,-0.41 -0.1,-0.59 0,-0.84 0.56,-1.32 1.36,-1.32 1.12,0 1.95,0.97 1.95,1.91 0,0.87 -0.56,1.33 -1.46,1.33 -2.34,0 -4.71,-1.78 -6.56,-3.21 -2.72,-2.02 -3.66,-2.41 -4.53,-2.65 0.41,1.64 0.48,1.92 0.62,2.54 0.25,0.84 0.63,2.38 0.63,2.55 0,0.63 -0.48,1.12 -1.18,1.12 -0.66,0 -1.26,-0.49 -1.47,-0.91 -0.17,-0.42 -3.42,-13.46 -3.42,-13.7 0,-0.77 0.63,-1.12 1.19,-1.12 1.25,0 1.54,1.15 1.67,1.74 0.07,0.18 0.77,3.04 1.64,6.52 1.82,0 6.63,-0.13 6.63,-2.82 0,-0.04 -0.04,-0.35 -0.14,-0.77 -0.1,-0.55 -0.1,-0.73 -0.1,-1.08 0,-2.47 2.02,-3.59 3.69,-3.59 3.42,0 4.43,5.3 4.43,5.33 0,0.46 -0.46,0.46 -0.56,0.46 -0.49,0 -0.52,-0.17 -0.7,-0.84 -0.38,-1.36 -1.29,-3.97 -3.06,-3.97 -0.95,0 -1.23,0.87 -1.23,1.81 0,0.6 0,0.66 0.21,1.57 0.11,0.38 0.18,0.73 0.18,1.15 0,3.7 -6.14,3.7 -7.22,3.7 z"
           inkscape:connector-curvature="0"
           style="fill:#000000;stroke-width:0" /><path
           id="path3498"
           d="m 971.71,434.86 0.39,0.09 0.38,0.11 0.38,0.11 0.38,0.12 0.37,0.13 0.37,0.14 0.36,0.15 0.35,0.15 0.34,0.16 0.34,0.17 0.33,0.18 0.32,0.18 0.31,0.19 0.3,0.2 0.29,0.2 0.27,0.21 0.27,0.22 0.25,0.22 0.24,0.23 0.22,0.23 0.21,0.24 0.2,0.25 0.17,0.25 0.17,0.25 0.14,0.26 0.13,0.27 0.11,0.27 0.09,0.27 0.07,0.28 0.06,0.28 0.03,0.29 0.01,0.29 c 0,3 -3.56,5.37 -8.61,5.37 l -10.71,0 c -0.66,0 -1.12,0 -1.12,-0.77 0,-0.49 0.42,-0.49 1.12,-0.49 0.03,0 0.7,0 1.33,-0.07 0.73,-0.07 0.8,-0.14 0.8,-0.49 0,-0.07 0,-0.24 -0.14,-0.77 l -4.64,-18.51 c -0.28,-1.18 -0.35,-1.47 -3.07,-1.47 -0.59,0 -1.04,0 -1.04,-0.73 0,-0.34 0.24,-0.52 0.55,-0.52 0.67,0 1.47,0.11 2.17,0.11 l 4.53,0 c 0.73,0 1.6,-0.11 2.34,-0.11 0.17,0 0.73,0 0.73,0.73 0,0.52 -0.35,0.52 -1.15,0.52 -0.56,0 -0.7,0 -1.33,0.07 -0.77,0.11 -0.77,0.18 -0.77,0.53 0,0.03 0,0.24 0.15,0.76 l 2.19,8.83 4.74,0 0.04,0.97 -4.5,0 2.23,8.97 c 0.25,0.97 0.32,1.08 1.08,1.18 l 2.24,0 c 3.24,0 7.25,0 7.25,-3.59 0,-1.43 -0.67,-3.63 -2.31,-4.88 -1.43,-1.12 -3.59,-1.68 -5.99,-1.68 l -0.04,-0.97 c 3,0 4.29,-1.5 4.29,-3.14 0,-0.46 -0.31,-1.64 -0.49,-2.44 -0.41,-1.61 -0.55,-2.13 -0.55,-2.72 0,-2.76 2.54,-3.84 5.12,-3.84 3.21,0 4.6,3.42 4.6,4.05 0,0.1 -0.07,0.49 -0.59,0.49 -0.45,0 -0.52,-0.25 -0.63,-0.6 -0.48,-1.53 -1.78,-2.96 -3.24,-2.96 -0.91,0 -1.57,0.38 -1.57,2.27 0,0.87 0.21,2.68 0.35,3.62 0.14,0.94 0.14,1.29 0.14,1.64 0,0.42 0,1.53 -0.98,2.58 -0.66,0.73 -1.6,1.19 -2.37,1.47 z"
           inkscape:connector-curvature="0"
           style="fill:#000000;stroke-width:0" /><path
           id="path3500"
           d="m 984.14,449.15 -0.03,0 -0.02,0 -0.03,0 -0.02,0 -0.03,0 -0.02,0 -0.03,0 -0.03,0 -0.03,-0.01 -0.02,0 -0.03,0 -0.03,-0.01 -0.03,-0.01 -0.02,0 -0.03,-0.01 -0.02,-0.01 -0.03,-0.01 -0.02,-0.01 -0.03,-0.02 -0.02,-0.01 -0.02,-0.02 -0.02,-0.01 -0.02,-0.02 -0.01,-0.01 0,-0.01 -0.01,-0.02 -0.01,-0.01 -0.01,-0.01 0,-0.01 -0.01,-0.02 0,-0.01 -0.01,-0.01 0,-0.02 -0.01,-0.01 0,-0.02 -0.01,-0.02 0,-0.01 0,-0.02 0,-0.02 0,-0.02 0,-0.02 c 0,-0.17 0.1,-0.28 0.31,-0.52 3,-2.75 6.35,-7.46 6.35,-16.46 0,-7.29 -2.27,-12.79 -6.04,-16.21 -0.59,-0.59 -0.62,-0.63 -0.62,-0.81 0,-0.17 0.1,-0.41 0.45,-0.41 0.42,0 3.73,2.3 6.03,6.66 1.54,2.89 2.55,6.66 2.55,10.74 0,4.91 -1.47,12.55 -8.37,17.43 z"
           inkscape:connector-curvature="0"
           style="fill:#000000;stroke-width:0" /><polyline
           id="polyline3502"
           points="863,410 996.8,410 996.8,412.04 863,412.04 "
           style="fill:#000000;fill-rule:nonzero;stroke-width:0" /><path
           id="path3504"
           d="m 912.24,389.86 0.12,0.07 0.13,0.07 0.25,0.16 0.26,0.17 0.25,0.17 0.26,0.17 0.25,0.17 0.24,0.17 0.12,0.08 0.11,0.08 0.11,0.08 0.11,0.08 0.11,0.07 0.1,0.08 0.09,0.06 0.09,0.07 0.09,0.06 0.08,0.06 0.08,0.05 0.06,0.05 0.07,0.05 0.05,0.04 0.05,0.03 0.04,0.03 0.03,0.02 0.02,0.02 c 2.41,1.81 3.25,2.3 4.36,2.68 -0.07,-0.14 -0.1,-0.41 -0.1,-0.59 0,-0.84 0.56,-1.32 1.36,-1.32 1.12,0 1.95,0.97 1.95,1.91 0,0.87 -0.56,1.33 -1.46,1.33 -2.34,0 -4.71,-1.78 -6.56,-3.21 -2.72,-2.02 -3.66,-2.41 -4.53,-2.65 0.41,1.64 0.48,1.92 0.62,2.54 0.25,0.84 0.63,2.38 0.63,2.55 0,0.63 -0.48,1.12 -1.18,1.12 -0.66,0 -1.26,-0.49 -1.47,-0.91 -0.17,-0.42 -3.42,-13.46 -3.42,-13.7 0,-0.77 0.63,-1.12 1.19,-1.12 1.25,0 1.54,1.15 1.67,1.74 0.07,0.18 0.77,3.04 1.64,6.52 1.82,0 6.63,-0.13 6.63,-2.82 0,-0.04 -0.04,-0.35 -0.14,-0.77 -0.1,-0.55 -0.1,-0.73 -0.1,-1.08 0,-2.47 2.02,-3.59 3.69,-3.59 3.42,0 4.43,5.3 4.43,5.33 0,0.46 -0.46,0.46 -0.56,0.46 -0.49,0 -0.52,-0.17 -0.7,-0.84 -0.38,-1.36 -1.29,-3.97 -3.06,-3.97 -0.95,0 -1.23,0.87 -1.23,1.81 0,0.6 0,0.66 0.21,1.57 0.11,0.38 0.18,0.73 0.18,1.15 0,3.7 -6.14,3.7 -7.22,3.7 z"
           inkscape:connector-curvature="0"
           style="fill:#000000;stroke-width:0" /><path
           id="path3506"
           d="m 946.71,392.86 0.39,0.09 0.38,0.11 0.38,0.11 0.38,0.12 0.37,0.13 0.37,0.14 0.36,0.15 0.35,0.15 0.34,0.16 0.34,0.17 0.33,0.18 0.32,0.18 0.31,0.19 0.3,0.2 0.29,0.2 0.27,0.21 0.27,0.22 0.25,0.22 0.24,0.23 0.22,0.23 0.21,0.24 0.2,0.25 0.17,0.25 0.17,0.25 0.14,0.26 0.13,0.27 0.11,0.27 0.09,0.27 0.07,0.28 0.06,0.28 0.03,0.29 0.01,0.29 c 0,3 -3.56,5.37 -8.61,5.37 l -10.71,0 c -0.66,0 -1.12,0 -1.12,-0.77 0,-0.49 0.42,-0.49 1.12,-0.49 0.03,0 0.7,0 1.33,-0.07 0.73,-0.07 0.8,-0.14 0.8,-0.49 0,-0.07 0,-0.24 -0.14,-0.77 l -4.64,-18.51 c -0.28,-1.18 -0.35,-1.47 -3.07,-1.47 -0.59,0 -1.04,0 -1.04,-0.73 0,-0.34 0.24,-0.52 0.55,-0.52 0.67,0 1.47,0.11 2.17,0.11 l 4.53,0 c 0.73,0 1.6,-0.11 2.34,-0.11 0.17,0 0.73,0 0.73,0.73 0,0.52 -0.35,0.52 -1.15,0.52 -0.56,0 -0.7,0 -1.33,0.07 -0.77,0.11 -0.77,0.18 -0.77,0.53 0,0.03 0,0.24 0.15,0.76 l 2.19,8.83 4.74,0 0.04,0.97 -4.5,0 2.23,8.97 c 0.25,0.97 0.32,1.08 1.08,1.18 l 2.24,0 c 3.24,0 7.25,0 7.25,-3.59 0,-1.43 -0.67,-3.63 -2.31,-4.88 -1.43,-1.12 -3.59,-1.68 -5.99,-1.68 l -0.04,-0.97 c 3,0 4.29,-1.5 4.29,-3.14 0,-0.46 -0.31,-1.64 -0.49,-2.44 -0.41,-1.61 -0.55,-2.13 -0.55,-2.72 0,-2.76 2.54,-3.84 5.12,-3.84 3.21,0 4.6,3.42 4.6,4.05 0,0.1 -0.07,0.49 -0.59,0.49 -0.45,0 -0.52,-0.25 -0.63,-0.6 -0.48,-1.53 -1.78,-2.96 -3.24,-2.96 -0.91,0 -1.57,0.38 -1.57,2.27 0,0.87 0.21,2.68 0.35,3.62 0.14,0.94 0.14,1.29 0.14,1.64 0,0.42 0,1.53 -0.98,2.58 -0.66,0.73 -1.6,1.19 -2.37,1.47 z"
           inkscape:connector-curvature="0"
           style="fill:#000000;stroke-width:0" /><path
           id="path3508"
           d="m 1041.3,429.79 0,0.18 -0.1,0.19 -0.1,0.19 0,0.19 -0.1,0.19 -0.1,0.19 -0.1,0.18 -0.1,0.18 -0.1,0.18 -0.1,0.18 -0.1,0.17 -0.1,0.17 -0.2,0.16 -0.1,0.16 -0.2,0.15 -0.1,0.15 -0.2,0.14 -0.2,0.14 -0.1,0.13 -0.2,0.12 -0.2,0.11 -0.2,0.11 -0.3,0.1 -0.2,0.09 -0.2,0.08 -0.3,0.07 -0.2,0.06 -0.3,0.05 -0.3,0.04 -0.2,0.03 -0.3,0.02 -0.3,0.01 0.1,-0.97 c 3.4,0 4.5,-2.66 4.5,-4.75 0,-2.34 -2.3,-9.76 -8.1,-9.76 l 0,0 c -4,0 -4.4,2.96 -4.4,4.04 0,1.36 0.9,4.78 1.3,5.65 0.6,1.6 2.8,4.82 6.7,4.82 l -0.1,0.97 c -4.9,0 -9,-3.66 -10.2,-6.8 -0.2,-0.59 -0.7,-2.02 -0.7,-3.42 0,-2.4 1.9,-6.38 7.3,-6.38 9,0 12.7,11.27 12.7,16.22 0,5.96 -3.9,9.38 -8.6,9.38 -5.7,0 -7.2,-4.54 -7.2,-5.62 0,-0.28 0.1,-1.25 1.4,-1.25 1.2,0 1.9,1.08 1.9,1.92 0,0.94 -0.7,1.25 -1.3,1.32 1.7,2.62 4.6,2.62 5.2,2.62 2.6,0 5.7,-1.64 5.7,-6.59 0,-1.5 -0.2,-2.73 -0.9,-5.51 z"
           inkscape:connector-curvature="0"
           style="fill:#000000;stroke-width:0" /><polyline
           id="polyline3510"
           points="1008,410 1061.6,410 1061.6,412.04 1008,412.04 "
           style="fill:#000000;fill-rule:nonzero;stroke-width:0" /><path
           id="path3512"
           d="m 1026.3,392.79 0,0.18 -0.1,0.19 -0.1,0.19 0,0.19 -0.1,0.19 -0.1,0.19 -0.1,0.18 -0.1,0.18 -0.1,0.18 -0.1,0.18 -0.1,0.17 -0.1,0.17 -0.2,0.16 -0.1,0.16 -0.2,0.15 -0.1,0.15 -0.2,0.14 -0.2,0.14 -0.1,0.13 -0.2,0.12 -0.2,0.11 -0.2,0.11 -0.3,0.1 -0.2,0.09 -0.2,0.08 -0.3,0.07 -0.2,0.06 -0.3,0.05 -0.3,0.04 -0.2,0.03 -0.3,0.02 -0.3,0.01 0.1,-0.97 c 3.4,0 4.5,-2.66 4.5,-4.75 0,-2.34 -2.3,-9.76 -8.1,-9.76 l 0,0 c -4,0 -4.4,2.96 -4.4,4.04 0,1.36 0.9,4.78 1.3,5.65 0.6,1.6 2.8,4.82 6.7,4.82 l -0.1,0.97 c -4.9,0 -9,-3.66 -10.2,-6.8 -0.2,-0.59 -0.7,-2.02 -0.7,-3.42 0,-2.4 1.9,-6.38 7.3,-6.38 9,0 12.7,11.27 12.7,16.22 0,5.96 -3.9,9.38 -8.6,9.38 -5.7,0 -7.2,-4.54 -7.2,-5.62 0,-0.28 0.2,-1.25 1.4,-1.25 1.2,0 1.9,1.08 1.9,1.92 0,0.94 -0.7,1.25 -1.3,1.32 1.7,2.62 4.6,2.62 5.2,2.62 2.6,0 5.7,-1.64 5.7,-6.59 0,-1.5 -0.2,-2.73 -0.9,-5.51 z"
           inkscape:connector-curvature="0"
           style="fill:#000000;stroke-width:0" /><path
           id="path3514"
           d="m 1052.7,392.86 0.4,0.09 0.4,0.11 0.4,0.11 0.3,0.12 0.4,0.13 0.4,0.14 0.3,0.15 0.4,0.15 0.3,0.16 0.4,0.17 0.3,0.18 0.3,0.18 0.3,0.19 0.3,0.2 0.3,0.2 0.3,0.21 0.3,0.22 0.2,0.22 0.2,0.23 0.3,0.23 0.2,0.24 0.2,0.25 0.2,0.25 0.1,0.25 0.2,0.26 0.1,0.27 0.1,0.27 0.1,0.27 0.1,0.28 0,0.28 0,0.29 0.1,0.29 c 0,3 -3.6,5.37 -8.7,5.37 l -10.7,0 c -0.6,0 -1.1,0 -1.1,-0.77 0,-0.49 0.4,-0.49 1.1,-0.49 0.1,0 0.7,0 1.4,-0.07 0.7,-0.07 0.8,-0.14 0.8,-0.49 0,-0.07 0,-0.24 -0.2,-0.77 l -4.6,-18.51 c -0.3,-1.18 -0.4,-1.47 -3.1,-1.47 -0.6,0 -1,0 -1,-0.73 0,-0.34 0.2,-0.52 0.5,-0.52 0.7,0 1.5,0.11 2.2,0.11 l 4.5,0 c 0.8,0 1.6,-0.11 2.4,-0.11 0.1,0 0.7,0 0.7,0.73 0,0.52 -0.4,0.52 -1.2,0.52 -0.5,0 -0.7,0 -1.3,0.07 -0.7,0.11 -0.7,0.18 -0.7,0.53 0,0.03 0,0.24 0.1,0.76 l 2.2,8.83 4.7,0 0.1,0.97 -4.5,0 2.2,8.97 c 0.2,0.97 0.3,1.08 1.1,1.18 l 2.2,0 c 3.3,0 7.3,0 7.3,-3.59 0,-1.43 -0.7,-3.63 -2.3,-4.88 -1.5,-1.12 -3.6,-1.68 -6,-1.68 l -0.1,-0.97 c 3,0 4.3,-1.5 4.3,-3.14 0,-0.46 -0.3,-1.64 -0.5,-2.44 -0.4,-1.61 -0.5,-2.13 -0.5,-2.72 0,-2.76 2.5,-3.84 5.1,-3.84 3.2,0 4.6,3.42 4.6,4.05 0,0.1 -0.1,0.49 -0.6,0.49 -0.4,0 -0.5,-0.25 -0.6,-0.6 -0.5,-1.53 -1.8,-2.96 -3.3,-2.96 -0.9,0 -1.5,0.38 -1.5,2.27 0,0.87 0.2,2.68 0.3,3.62 0.2,0.94 0.2,1.29 0.2,1.64 0,0.42 0,1.53 -1,2.58 -0.7,0.73 -1.6,1.19 -2.4,1.47 z"
           inkscape:connector-curvature="0"
           style="fill:#000000;stroke-width:0" /><polygon
           id="polygon3516"
           points="1098.6,455.99 1087.3,455.99 1087.3,366.38 1098.6,366.38 1098.6,368.72 1089.6,368.72 1089.6,453.65 1098.6,453.65 "
           style="fill:#000000;stroke-width:0" /><path
           id="path3518"
           d="m 1125.8,415.94 0.5,0.11 0.5,0.12 0.5,0.14 0.5,0.15 0.4,0.16 0.5,0.18 0.5,0.19 0.5,0.2 0.5,0.22 0.4,0.23 0.5,0.24 0.4,0.25 0.5,0.27 0.4,0.28 0.4,0.29 0.4,0.3 0.4,0.31 0.4,0.32 0.3,0.34 0.4,0.35 0.3,0.35 0.3,0.37 0.3,0.38 0.2,0.39 0.2,0.4 0.2,0.41 0.2,0.42 0.1,0.43 0.2,0.44 0,0.45 0.1,0.45 0,0.47 c 0,4.29 -4.5,7.47 -11,7.47 l -14.2,0 c -1,0 -1.4,0 -1.4,-0.99 0,-0.55 0.4,-0.55 1.4,-0.55 0.1,0 1,0 1.8,-0.1 0.9,-0.1 1.4,-0.15 1.4,-0.8 0,-0.2 0,-0.35 -0.2,-0.94 l -6.7,-26.75 c -0.5,-1.95 -0.6,-2.35 -4.5,-2.35 -0.9,0 -1.4,0 -1.4,-0.99 0,-0.55 0.6,-0.55 0.7,-0.55 l 12.6,0 c 0.4,0 1,0 1,1 0,0.54 -0.4,0.54 -1.4,0.54 -1.8,0 -3.2,0 -3.2,0.9 0,0.3 0.1,0.55 0.2,0.85 l 3.2,13.2 6,0 -0.1,1.1 -5.6,0 3.3,13 c 0.3,1.19 0.4,1.69 1.4,1.84 0.4,0.05 2,0.05 3,0.05 3.6,0 9.1,0 9.1,-4.93 0,-1.7 -0.8,-5.14 -2.8,-7.08 -1.3,-1.29 -3.9,-2.88 -8.4,-2.88 l 0.1,-1.1 c 4.5,0 5.4,-2.79 5.4,-4.53 0,-0.75 -0.4,-2.3 -0.7,-3.44 -0.4,-1.4 -0.8,-3.24 -0.8,-4.23 0,-5.39 6,-5.39 6.6,-5.39 4.3,0 6,5.03 6,5.73 0,0.6 -0.5,0.6 -0.6,0.6 -0.4,0 -0.5,-0.35 -0.6,-0.7 -1.3,-3.68 -3.4,-4.53 -4.6,-4.53 -1.6,0 -2,1.1 -2,3.04 0,1.54 0.3,4.08 0.5,5.68 0.1,0.69 0.2,1.64 0.2,2.34 0,3.83 -3.3,5.38 -4.7,5.88 z"
           inkscape:connector-curvature="0"
           style="fill:#000000;stroke-width:0" /><path
           id="path3520"
           d="m 1155.6,423.35 -1.2,0 c -0.1,-0.77 -0.4,-2.83 -0.9,-3.18 -0.3,-0.21 -2.9,-0.21 -3.4,-0.21 l -6.4,0 c 3.6,3.25 4.8,4.22 6.9,5.86 2.6,2.06 5,4.22 5,7.54 0,4.21 -3.7,6.79 -8.2,6.79 -4.3,0 -7.2,-3.03 -7.2,-6.24 0,-1.78 1.5,-1.95 1.8,-1.95 0.9,0 1.9,0.59 1.9,1.85 0,0.62 -0.2,1.85 -2.1,1.85 1.1,2.47 3.5,3.24 5.1,3.24 3.5,0 5.3,-2.72 5.3,-5.54 0,-3.04 -2.1,-5.45 -3.3,-6.7 l -8.3,-8.3 c -0.4,-0.31 -0.4,-0.38 -0.4,-1.36 l 14.4,0 z"
           inkscape:connector-curvature="0"
           style="fill:#000000;stroke-width:0" /><path
           id="path3522"
           d="m 1184.3,434.79 0,0.18 -0.1,0.19 -0.1,0.19 0,0.19 -0.1,0.19 -0.1,0.19 -0.1,0.18 -0.1,0.18 -0.1,0.18 -0.1,0.18 -0.1,0.17 -0.1,0.17 -0.2,0.16 -0.1,0.16 -0.2,0.15 -0.1,0.15 -0.2,0.14 -0.2,0.14 -0.1,0.13 -0.2,0.12 -0.2,0.11 -0.2,0.11 -0.3,0.1 -0.2,0.09 -0.2,0.08 -0.3,0.07 -0.2,0.06 -0.3,0.05 -0.3,0.04 -0.2,0.03 -0.3,0.02 -0.3,0.01 0.1,-0.97 c 3.4,0 4.5,-2.66 4.5,-4.75 0,-2.34 -2.3,-9.76 -8.1,-9.76 l 0,0 c -4,0 -4.4,2.96 -4.4,4.04 0,1.36 0.9,4.78 1.3,5.65 0.6,1.6 2.8,4.82 6.7,4.82 l -0.1,0.97 c -4.9,0 -9,-3.66 -10.2,-6.8 -0.2,-0.59 -0.7,-2.02 -0.7,-3.42 0,-2.4 1.9,-6.38 7.3,-6.38 9,0 12.7,11.27 12.7,16.22 0,5.96 -3.9,9.38 -8.6,9.38 -5.7,0 -7.2,-4.54 -7.2,-5.62 0,-0.28 0.1,-1.25 1.4,-1.25 1.2,0 1.9,1.08 1.9,1.92 0,0.94 -0.7,1.25 -1.3,1.32 1.7,2.62 4.6,2.62 5.2,2.62 2.6,0 5.7,-1.64 5.7,-6.59 0,-1.5 -0.2,-2.73 -0.9,-5.51 z"
           inkscape:connector-curvature="0"
           style="fill:#000000;stroke-width:0" /><path
           id="path3524"
           d="m 1196.6,425.72 0,-0.11 -0.1,-0.1 0,-0.1 0,-0.09 0,-0.09 -0.1,-0.09 0,-0.07 0,-0.08 -0.1,-0.07 0,-0.07 0,-0.06 -0.1,-0.05 0,-0.06 -0.1,-0.05 -0.1,-0.04 0,-0.05 -0.1,-0.04 -0.1,-0.03 -0.1,-0.04 -0.1,-0.02 -0.1,-0.03 -0.1,-0.01 0,-0.01 -0.1,-0.02 -0.1,-0.01 0,0 -0.1,-0.01 -0.1,-0.01 0,-0.01 -0.1,-0.01 -0.1,0 -0.1,-0.01 -0.1,0 -0.1,-0.01 -0.1,0 -0.1,-0.01 -0.1,0 -0.1,0 -0.1,0 -0.1,0 -0.1,-0.01 -0.2,0 -0.1,0 c -0.6,0 -1,0 -1,-0.76 0,-0.49 0.4,-0.49 1,-0.49 l 12.5,0 -0.7,1.25 -4.7,0 c -1.1,0 -1.1,0.04 -1.1,0.36 0,0.03 0,0.2 0.1,0.73 l 4.8,19.04 c 0.3,1.08 0.3,1.18 1.8,1.18 l 4.4,0 c 4,0 7.2,-1.95 7.2,-6.69 0,-0.81 -0.3,-6.84 -3.8,-10.82 -1.4,-1.56 -4.4,-3.8 -8.7,-3.8 L 1206,423 c 7.7,0 15.1,7.11 15.1,14.71 0,5.09 -3.5,9.11 -9.2,9.11 l -12.7,0 c -0.7,0 -1.1,0 -1.1,-0.77 0,-0.49 0.4,-0.49 1.2,-0.49 0.5,0 0.7,0 1.3,-0.07 0.7,-0.07 0.8,-0.14 0.8,-0.49 0,-0.07 0,-0.24 -0.2,-0.77 z"
           inkscape:connector-curvature="0"
           style="fill:#000000;stroke-width:0" /><path
           id="path3526"
           d="m 1226.9,420.44 -0.1,-0.06 0,-0.06 0,-0.07 0,-0.06 0,-0.07 0,-0.07 -0.1,-0.14 0,-0.15 0,-0.14 -0.1,-0.15 0,-0.07 0,-0.07 0,-0.07 0,-0.06 -0.1,-0.07 0,-0.06 0,-0.06 0,-0.06 0,-0.05 0,-0.05 0,-0.05 0,-0.04 -0.1,-0.04 0,-0.03 0,-0.03 0,-0.03 0,-0.02 0,-0.01 0,0 c 0,-0.55 0.5,-0.87 1,-0.87 0.3,0 0.9,0.2 1.2,0.82 0,0.12 0.3,1.29 0.4,1.94 0.9,3.36 0.9,3.41 0.9,3.51 0.3,0.68 2.1,4.16 5.2,4.16 1.2,0 1.7,-0.67 1.7,-1.79 0,-1.42 -1,-3.99 -1.6,-5.41 -0.1,-0.3 -0.3,-0.62 -0.3,-1.04 0,-1.3 1.3,-2.19 2.8,-2.19 2.6,0 4,3.23 4,3.86 0,0.34 -0.4,0.34 -0.5,0.34 -0.4,0 -0.5,-0.09 -0.6,-0.57 -0.5,-1.49 -1.6,-2.79 -2.8,-2.79 -0.6,0 -0.8,0.4 -0.8,0.95 0,0.52 0.1,0.77 0.3,1.32 0.5,1 1.6,3.84 1.6,5.2 0,1.85 -1.3,2.97 -3.7,2.97 -2.2,0 -3.8,-1.37 -4.7,-2.47 -0.1,2.05 -2.1,2.47 -3,2.47 -2.5,0 -3.2,-3.81 -3.2,-3.86 0,-0.35 0.4,-0.35 0.5,-0.35 0.4,0 0.5,0.15 0.6,0.47 0.3,1.45 0.9,2.89 2,2.89 0.8,0 1,-0.8 1,-1.32 0,-0.35 -0.3,-1.29 -0.4,-1.94 -0.2,-0.67 -0.4,-1.69 -0.6,-2.24 z"
           inkscape:connector-curvature="0"
           style="fill:#000000;stroke-width:0" /><path
           id="path3528"
           d="m 1259.4,449.15 -0.6,-0.44 -0.6,-0.46 -0.6,-0.48 -0.5,-0.49 -0.5,-0.5 -0.5,-0.51 -0.4,-0.52 -0.4,-0.54 -0.4,-0.54 -0.4,-0.55 -0.4,-0.56 -0.3,-0.56 -0.3,-0.57 -0.3,-0.57 -0.2,-0.58 -0.3,-0.58 -0.2,-0.58 -0.2,-0.58 -0.2,-0.59 -0.2,-0.58 -0.1,-0.58 -0.2,-0.58 -0.1,-0.57 -0.1,-0.58 -0.1,-0.56 -0.1,-0.56 -0.1,-0.55 0,-0.55 0,-0.54 -0.1,-0.52 0,-0.52 0,-0.51 c 0,-4.91 1.5,-12.55 8.4,-17.43 0.3,0 0.7,0 0.7,0.41 0,0.22 -0.1,0.29 -0.4,0.53 -4.6,4.18 -6.3,10.11 -6.3,16.46 0,9.41 3.6,14.01 6.4,16.6 0.2,0.13 0.3,0.24 0.3,0.41 0,0.42 -0.4,0.42 -0.7,0.42 z"
           inkscape:connector-curvature="0"
           style="fill:#000000;stroke-width:0" /><path
           id="path3530"
           d="m 1282.7,434.86 0.4,0.09 0.4,0.11 0.4,0.11 0.3,0.12 0.4,0.13 0.4,0.14 0.3,0.15 0.4,0.15 0.3,0.16 0.4,0.17 0.3,0.18 0.3,0.18 0.3,0.19 0.3,0.2 0.3,0.2 0.3,0.21 0.3,0.22 0.2,0.22 0.2,0.23 0.3,0.23 0.2,0.24 0.2,0.25 0.2,0.25 0.1,0.25 0.2,0.26 0.1,0.27 0.1,0.27 0.1,0.27 0.1,0.28 0,0.28 0,0.29 0.1,0.29 c 0,3 -3.6,5.37 -8.7,5.37 l -10.7,0 c -0.6,0 -1.1,0 -1.1,-0.77 0,-0.49 0.4,-0.49 1.1,-0.49 0.1,0 0.7,0 1.4,-0.07 0.7,-0.07 0.8,-0.14 0.8,-0.49 0,-0.07 0,-0.24 -0.2,-0.77 l -4.6,-18.51 c -0.3,-1.18 -0.4,-1.47 -3.1,-1.47 -0.6,0 -1,0 -1,-0.73 0,-0.34 0.2,-0.52 0.5,-0.52 0.7,0 1.5,0.11 2.2,0.11 l 4.5,0 c 0.8,0 1.6,-0.11 2.4,-0.11 0.1,0 0.7,0 0.7,0.73 0,0.52 -0.4,0.52 -1.2,0.52 -0.5,0 -0.7,0 -1.3,0.07 -0.7,0.11 -0.7,0.18 -0.7,0.53 0,0.03 0,0.24 0.1,0.76 l 2.2,8.83 4.7,0 0.1,0.97 -4.5,0 2.2,8.97 c 0.2,0.97 0.3,1.08 1.1,1.18 l 2.2,0 c 3.3,0 7.3,0 7.3,-3.59 0,-1.43 -0.7,-3.63 -2.3,-4.88 -1.5,-1.12 -3.6,-1.68 -6,-1.68 l -0.1,-0.97 c 3,0 4.3,-1.5 4.3,-3.14 0,-0.46 -0.3,-1.64 -0.5,-2.44 -0.4,-1.61 -0.5,-2.13 -0.5,-2.72 0,-2.76 2.5,-3.84 5.1,-3.84 3.2,0 4.6,3.42 4.6,4.05 0,0.1 -0.1,0.49 -0.6,0.49 -0.4,0 -0.5,-0.25 -0.6,-0.6 -0.5,-1.53 -1.8,-2.96 -3.3,-2.96 -0.9,0 -1.5,0.38 -1.5,2.27 0,0.87 0.2,2.68 0.3,3.62 0.2,0.94 0.2,1.29 0.2,1.64 0,0.42 0,1.53 -1,2.58 -0.7,0.73 -1.6,1.19 -2.4,1.47 z"
           inkscape:connector-curvature="0"
           style="fill:#000000;stroke-width:0" /><path
           id="path3532"
           d="m 1296.1,449.15 0,0 0,0 0,0 -0.1,0 0,0 0,0 0,0 -0.1,0 0,-0.01 0,0 -0.1,0 0,-0.01 0,-0.01 0,0 -0.1,-0.01 0,-0.01 0,-0.01 0,-0.01 -0.1,-0.02 0,-0.01 0,-0.02 0,-0.01 0,-0.02 0,-0.01 -0.1,-0.01 0,-0.02 0,-0.01 0,-0.01 0,-0.01 0,-0.02 0,-0.01 0,-0.01 0,-0.02 0,-0.01 0,-0.02 0,-0.02 0,-0.01 0,-0.02 0,-0.02 0,-0.02 0,-0.02 c 0,-0.17 0.1,-0.28 0.3,-0.52 3,-2.75 6.3,-7.46 6.3,-16.46 0,-7.29 -2.2,-12.79 -6,-16.21 -0.6,-0.59 -0.6,-0.63 -0.6,-0.81 0,-0.17 0.1,-0.41 0.4,-0.41 0.4,0 3.8,2.3 6.1,6.66 1.5,2.89 2.5,6.66 2.5,10.74 0,4.91 -1.5,12.55 -8.4,17.43 z"
           inkscape:connector-curvature="0"
           style="fill:#000000;stroke-width:0" /><polyline
           id="polyline3534"
           points="1166,410 1307.8,410 1307.8,412.04 1166,412.04 "
           style="fill:#000000;fill-rule:nonzero;stroke-width:0" /><path
           id="path3536"
           d="m 1228.3,392.79 0,0.18 -0.1,0.19 -0.1,0.19 0,0.19 -0.1,0.19 -0.1,0.19 -0.1,0.18 -0.1,0.18 -0.1,0.18 -0.1,0.18 -0.1,0.17 -0.1,0.17 -0.2,0.16 -0.1,0.16 -0.2,0.15 -0.1,0.15 -0.2,0.14 -0.2,0.14 -0.1,0.13 -0.2,0.12 -0.2,0.11 -0.2,0.11 -0.3,0.1 -0.2,0.09 -0.2,0.08 -0.3,0.07 -0.2,0.06 -0.3,0.05 -0.3,0.04 -0.2,0.03 -0.3,0.02 -0.3,0.01 0.1,-0.97 c 3.4,0 4.5,-2.66 4.5,-4.75 0,-2.34 -2.3,-9.76 -8.1,-9.76 l 0,0 c -4,0 -4.4,2.96 -4.4,4.04 0,1.36 0.9,4.78 1.3,5.65 0.6,1.6 2.8,4.82 6.7,4.82 l -0.1,0.97 c -4.9,0 -9,-3.66 -10.2,-6.8 -0.2,-0.59 -0.7,-2.02 -0.7,-3.42 0,-2.4 1.9,-6.38 7.3,-6.38 9,0 12.7,11.27 12.7,16.22 0,5.96 -3.9,9.38 -8.6,9.38 -5.7,0 -7.2,-4.54 -7.2,-5.62 0,-0.28 0.1,-1.25 1.4,-1.25 1.2,0 1.9,1.08 1.9,1.92 0,0.94 -0.7,1.25 -1.3,1.32 1.7,2.62 4.6,2.62 5.2,2.62 2.6,0 5.7,-1.64 5.7,-6.59 0,-1.5 -0.2,-2.73 -0.9,-5.51 z"
           inkscape:connector-curvature="0"
           style="fill:#000000;stroke-width:0" /><path
           id="path3538"
           d="m 1254.7,392.86 0.4,0.09 0.4,0.11 0.4,0.11 0.3,0.12 0.4,0.13 0.4,0.14 0.3,0.15 0.4,0.15 0.3,0.16 0.4,0.17 0.3,0.18 0.3,0.18 0.3,0.19 0.3,0.2 0.3,0.2 0.3,0.21 0.3,0.22 0.2,0.22 0.2,0.23 0.3,0.23 0.2,0.24 0.2,0.25 0.2,0.25 0.1,0.25 0.2,0.26 0.1,0.27 0.1,0.27 0.1,0.27 0.1,0.28 0,0.28 0,0.29 0.1,0.29 c 0,3 -3.6,5.37 -8.7,5.37 l -10.7,0 c -0.6,0 -1.1,0 -1.1,-0.77 0,-0.49 0.4,-0.49 1.1,-0.49 0.1,0 0.7,0 1.4,-0.07 0.7,-0.07 0.8,-0.14 0.8,-0.49 0,-0.07 0,-0.24 -0.2,-0.77 l -4.6,-18.51 c -0.3,-1.18 -0.4,-1.47 -3.1,-1.47 -0.6,0 -1,0 -1,-0.73 0,-0.34 0.2,-0.52 0.5,-0.52 0.7,0 1.5,0.11 2.2,0.11 l 4.5,0 c 0.8,0 1.6,-0.11 2.4,-0.11 0.1,0 0.7,0 0.7,0.73 0,0.52 -0.4,0.52 -1.2,0.52 -0.5,0 -0.7,0 -1.3,0.07 -0.7,0.11 -0.7,0.18 -0.7,0.53 0,0.03 0,0.24 0.1,0.76 l 2.2,8.83 4.7,0 0.1,0.97 -4.5,0 2.2,8.97 c 0.2,0.97 0.3,1.08 1.1,1.18 l 2.2,0 c 3.3,0 7.3,0 7.3,-3.59 0,-1.43 -0.7,-3.63 -2.3,-4.88 -1.5,-1.12 -3.6,-1.68 -6,-1.68 l -0.1,-0.97 c 3,0 4.3,-1.5 4.3,-3.14 0,-0.46 -0.3,-1.64 -0.5,-2.44 -0.4,-1.61 -0.5,-2.13 -0.5,-2.72 0,-2.76 2.5,-3.84 5.1,-3.84 3.2,0 4.6,3.42 4.6,4.05 0,0.1 -0.1,0.49 -0.6,0.49 -0.4,0 -0.5,-0.25 -0.6,-0.6 -0.5,-1.53 -1.8,-2.96 -3.3,-2.96 -0.9,0 -1.5,0.38 -1.5,2.27 0,0.87 0.2,2.68 0.3,3.62 0.2,0.94 0.2,1.29 0.2,1.64 0,0.42 0,1.53 -1,2.58 -0.7,0.73 -1.6,1.19 -2.4,1.47 z"
           inkscape:connector-curvature="0"
           style="fill:#000000;stroke-width:0" /><polygon
           id="polygon3540"
           points="1314.9,453.65 1323.9,453.65 1323.9,368.72 1314.9,368.72 1314.9,366.38 1326.2,366.38 1326.2,455.99 1314.9,455.99 "
           style="fill:#000000;stroke-width:0" /><path
           id="path3542"
           d="m 1379.7,433.02 0,0.01 0,0 0,0.01 0,0.01 0,0.01 0,0.01 0,0.02 0,0.02 0,0.02 0,0.02 0,0.02 0,0.02 0,0.03 0,0.02 -0.1,0.03 0,0.02 0,0.02 0,0.03 0,0.02 0,0.03 -0.1,0.02 0,0.01 0,0.01 0,0.01 0,0.01 0,0.01 0,0.01 -0.1,0.01 0,0.01 0,0.01 0,0.01 0,0.01 0,0 -0.1,0.01 0,0.01 0,0 0,0.01 -0.1,0 0,0.01 0,0 0,0 -0.1,0.01 0,0 0,0 0,0 c -0.8,0 -5.5,-0.45 -6.4,-0.55 -0.4,-0.05 -0.7,-0.3 -0.7,-0.95 0,-0.59 0.5,-0.59 1.2,-0.59 2.4,0 2.5,-0.35 2.5,-0.85 l -0.1,-0.99 -3,-11.81 c -0.9,1.84 -2.4,3.19 -4.6,3.19 l 0.1,-1.1 c 3.2,0 3.9,-4.08 3.9,-4.38 0,-0.3 -0.1,-0.6 -0.2,-0.85 l -2.5,-9.76 c -0.2,-0.9 -0.2,-1 -1,-1.84 -2.1,-2.75 -4.2,-3.54 -5.6,-3.54 -2.5,0 -3.2,2.74 -3.2,4.68 0,2.49 1.6,8.62 2.8,10.91 1.5,2.94 3.8,4.78 5.8,4.78 l -0.1,1.1 c -5.8,0 -12,-7.32 -12,-14.6 0,-4.68 2.7,-7.97 6.6,-7.97 1,0 3.5,0.2 6.5,3.74 0.4,-2.09 2.1,-3.74 4.5,-3.74 1.8,0 2.9,1.15 3.7,2.74 0.9,1.79 1.5,4.83 1.5,4.93 0,0.5 -0.4,0.5 -0.6,0.5 -0.5,0 -0.5,-0.2 -0.7,-0.89 -0.8,-3.24 -1.7,-6.18 -3.8,-6.18 -1.3,0 -1.5,1.29 -1.5,2.29 0,1.2 0.1,1.54 0.3,2.39 z"
           inkscape:connector-curvature="0"
           style="fill:#000000;stroke-width:0" /><path
           id="path3544"
           d="m 1405.8,415.94 0.5,0.11 0.5,0.12 0.5,0.14 0.5,0.15 0.4,0.16 0.5,0.18 0.5,0.19 0.5,0.2 0.5,0.22 0.4,0.23 0.5,0.24 0.4,0.25 0.5,0.27 0.4,0.28 0.4,0.29 0.4,0.3 0.4,0.31 0.4,0.32 0.3,0.34 0.4,0.35 0.3,0.35 0.3,0.37 0.3,0.38 0.2,0.39 0.2,0.4 0.2,0.41 0.2,0.42 0.1,0.43 0.2,0.44 0,0.45 0.1,0.45 0,0.47 c 0,4.29 -4.5,7.47 -11,7.47 l -14.2,0 c -1,0 -1.4,0 -1.4,-0.99 0,-0.55 0.4,-0.55 1.4,-0.55 0.1,0 1,0 1.8,-0.1 0.9,-0.1 1.4,-0.15 1.4,-0.8 0,-0.2 0,-0.35 -0.2,-0.94 l -6.7,-26.75 c -0.5,-1.95 -0.6,-2.35 -4.5,-2.35 -0.9,0 -1.4,0 -1.4,-0.99 0,-0.55 0.6,-0.55 0.7,-0.55 l 12.6,0 c 0.4,0 1,0 1,1 0,0.54 -0.4,0.54 -1.4,0.54 -1.8,0 -3.2,0 -3.2,0.9 0,0.3 0.1,0.55 0.2,0.85 l 3.2,13.2 6,0 -0.1,1.1 -5.6,0 3.3,13 c 0.3,1.19 0.4,1.69 1.4,1.84 0.4,0.05 2,0.05 3,0.05 3.6,0 9.1,0 9.1,-4.93 0,-1.7 -0.8,-5.14 -2.8,-7.08 -1.3,-1.29 -3.9,-2.88 -8.4,-2.88 l 0.1,-1.1 c 4.5,0 5.4,-2.79 5.4,-4.53 0,-0.75 -0.4,-2.3 -0.7,-3.44 -0.4,-1.4 -0.8,-3.24 -0.8,-4.23 0,-5.39 6,-5.39 6.6,-5.39 4.3,0 6,5.03 6,5.73 0,0.6 -0.5,0.6 -0.6,0.6 -0.4,0 -0.5,-0.35 -0.6,-0.7 -1.3,-3.68 -3.4,-4.53 -4.6,-4.53 -1.6,0 -2,1.1 -2,3.04 0,1.54 0.3,4.08 0.5,5.68 0.1,0.69 0.2,1.64 0.2,2.34 0,3.83 -3.3,5.38 -4.7,5.88 z"
           inkscape:connector-curvature="0"
           style="fill:#000000;stroke-width:0" /></g>    </g>
    <rect
       style="fill:#0000ff;fill-rule:evenodd;stroke:#000000;stroke-width:2;stroke-linecap:butt;stroke-linejoin:bevel;stroke-opacity:1;opacity:0.433;filter:url(#filter4617);stroke-miterlimit:4;stroke-dasharray:none"
       id="rect3623"
       width="205.71428"
       height="95.714287"
       x="468.57144"
       y="479.50504" />
    <text
       xml:space="preserve"
       style="font-style:normal;font-weight:normal;font-size:40px;line-height:125%;font-family:sans-serif;letter-spacing:0px;word-spacing:0px;fill:#000000;fill-opacity:1;stroke:none;stroke-width:1px;stroke-linecap:butt;stroke-linejoin:miter;stroke-opacity:1"
       x="70"
       y="253.79076"
       id="text4621"
       sodipodi:linespacing="125%"><tspan
         sodipodi:role="line"
         id="tspan4623"
         x="70"
         y="253.79076">Extensions -&gt; Render -&gt; LaTex</tspan></text>
    <text
       xml:space="preserve"
       style="font-style:normal;font-weight:normal;font-size:25px;line-height:125%;font-family:sans-serif;letter-spacing:0px;word-spacing:0px;fill:#000000;fill-opacity:1;stroke:none;stroke-width:1px;stroke-linecap:butt;stroke-linejoin:miter;stroke-opacity:1"
       x="132.85715"
       y="45.21933"
       id="text4625"
       sodipodi:linespacing="125%"><tspan
         sodipodi:role="line"
         id="tspan4627"
         x="132.85715"
         y="45.21933">to include math</tspan><tspan
         sodipodi:role="line"
         x="132.85715"
         y="76.46933"
         id="tspan4655">formulas in your</tspan><tspan
         sodipodi:role="line"
         x="132.85715"
         y="107.71933"
         id="tspan4657">inkscape</tspan><tspan
         sodipodi:role="line"
         x="132.85715"
         y="138.96933"
         id="tspan4629">document select</tspan></text>
    <g
       sodipodi:type="inkscape:box3d"
       id="g4637"
       style="opacity:0.43300003;stroke-width:2;stroke-linejoin:bevel;stroke-miterlimit:4;stroke-dasharray:none"
       inkscape:perspectiveID="#perspective4635"
       inkscape:corner0="1.684877 : 0.11508089 : 0 : 1"
       inkscape:corner7="-0.45401872 : 0.028389916 : 0.25 : 1">
      <path
         sodipodi:type="inkscape:box3dside"
         id="path4647"
         style="fill:#afafde;fill-rule:evenodd;stroke:none;stroke-width:1px;stroke-linecap:butt;stroke-linejoin:round;stroke-opacity:1"
         inkscape:box3dsidetype="13"
         d="M 81.42857,823.79076 624.2857,1038.2852 643.96767,953.7207 133.0085,819.12681 Z"
         points="624.2857,1038.2852 643.96767,953.7207 133.0085,819.12681 81.42857,823.79076 " />
      <path
         sodipodi:type="inkscape:box3dside"
         id="path4639"
         style="fill:#353564;fill-rule:evenodd;stroke:none;stroke-width:1px;stroke-linecap:butt;stroke-linejoin:round;stroke-opacity:1"
         inkscape:box3dsidetype="6"
         d="m 81.42857,791.50214 0,32.28862 51.57993,-4.66395 0,-29.5382 z"
         points="81.42857,823.79076 133.0085,819.12681 133.0085,789.58861 81.42857,791.50214 " />
      <path
         sodipodi:type="inkscape:box3dside"
         id="path4649"
         style="fill:#e9e9ff;fill-rule:evenodd;stroke:none;stroke-width:1px;stroke-linecap:butt;stroke-linejoin:round;stroke-opacity:1"
         inkscape:box3dsidetype="11"
         d="m 133.0085,789.58861 510.95917,55.22127 0,108.91082 L 133.0085,819.12681 Z"
         points="643.96767,844.80988 643.96767,953.7207 133.0085,819.12681 133.0085,789.58861 " />
      <path
         sodipodi:type="inkscape:box3dside"
         id="path4641"
         style="fill:#4d4d9f;fill-rule:evenodd;stroke:none;stroke-width:1px;stroke-linecap:butt;stroke-linejoin:round;stroke-opacity:1"
         inkscape:box3dsidetype="5"
         d="M 81.42857,791.50214 624.2857,879.50505 643.96767,844.80988 133.0085,789.58861 Z"
         points="624.2857,879.50505 643.96767,844.80988 133.0085,789.58861 81.42857,791.50214 " />
      <path
         sodipodi:type="inkscape:box3dside"
         id="path4645"
         style="fill:#d7d7ff;fill-rule:evenodd;stroke:none;stroke-width:1px;stroke-linecap:butt;stroke-linejoin:round;stroke-opacity:1"
         inkscape:box3dsidetype="14"
         d="m 624.2857,879.50505 0,158.78015 19.68197,-84.5645 0,-108.91082 z"
         points="624.2857,1038.2852 643.96767,953.7207 643.96767,844.80988 624.2857,879.50505 " />
      <path
         sodipodi:type="inkscape:box3dside"
         id="path4643"
         style="fill:#8686bf;fill-rule:evenodd;stroke:none;stroke-width:1px;stroke-linecap:butt;stroke-linejoin:round;stroke-opacity:1"
         inkscape:box3dsidetype="3"
         d="m 81.42857,791.50214 542.85713,88.00291 0,158.78015 L 81.42857,823.79076 Z"
         points="624.2857,879.50505 624.2857,1038.2852 81.42857,823.79076 81.42857,791.50214 " />
    </g>
    <ellipse
       style="opacity:0.049;stroke-width:2;stroke-linejoin:bevel;stroke-miterlimit:4;stroke-dasharray:none"
       id="path4651"
       cx="568.57141"
       cy="526.64789"
       rx="164.28572"
       ry="77.14286" />
  </g>
</svg>
